<?xml version="1.0" encoding="UTF-8"?>
<svg version="1.1" xmlns="http://www.w3.org/2000/svg" width="256" height="256">
<path d="M0 0 C2.72325873 0.57892405 5.32819261 0.64101192 8.109375 0.73828125 C15.13694836 1.26312534 20.28718698 3.96614764 26.296875 7.48828125 C27.97910156 8.46087891 27.97910156 8.46087891 29.6953125 9.453125 C38.70334299 14.82290061 45.15438947 19.38261297 50.703125 28.28125 C52.35588343 30.56999636 54.01126274 32.01536925 56.234375 33.73828125 C60.7892121 37.47203766 62.90850613 41.97159294 65.5234375 47.171875 C67.19747483 50.30239855 69.02184694 52.98364962 71.171875 55.80078125 C74.53324669 60.27166821 77.41368258 64.8821436 80.171875 69.73828125 C80.74397705 70.73081909 80.74397705 70.73081909 81.32763672 71.7434082 C81.86541748 72.70766724 81.86541748 72.70766724 82.4140625 73.69140625 C82.72972168 74.25504883 83.04538086 74.81869141 83.37060547 75.39941406 C85.736695 80.73527648 86.56996795 85.87588406 86.78125 91.671875 C86.8053595 92.33107437 86.82946899 92.99027374 86.85430908 93.66944885 C86.90225398 95.05333069 86.94571797 96.43737451 86.98486328 97.8215332 C87.04663496 99.91763588 87.12986366 102.0121469 87.21484375 104.10742188 C87.45359644 110.9566429 87.31226 116.91736562 85.296875 123.48828125 C85.14692463 125.33930789 85.0369392 127.19443491 84.984375 129.05078125 C84.63609025 133.61579926 83.62555737 135.74937915 80.61328125 139.28515625 C78.72173951 142.45082255 78.16938938 145.85868797 77.421875 149.42578125 C75.89070537 156.46835991 73.58080007 160.63086135 68.296875 165.48828125 C65.51384192 168.59187312 62.93632534 171.61321681 61.296875 175.48828125 C60.636875 175.48828125 59.976875 175.48828125 59.296875 175.48828125 C58.925625 176.26171875 58.925625 176.26171875 58.546875 177.05078125 C58.134375 177.85515625 57.721875 178.65953125 57.296875 179.48828125 C56.74 180.60203125 56.183125 181.71578125 55.609375 182.86328125 C51.55855504 189.84144433 45.0536148 193.46620606 37.859375 196.61328125 C36.42273711 197.26074339 34.9865372 197.90917825 33.55078125 198.55859375 C32.85009521 198.87296387 32.14940918 199.18733398 31.42749023 199.51123047 C27.04820365 201.51946983 22.73311262 203.6198585 18.609375 206.11328125 C16.296875 207.48828125 16.296875 207.48828125 14.046875 208.36328125 C11.36516763 209.35523197 11.36516763 209.35523197 9.4375 210.72265625 C0.80210051 216.33251431 -7.90648651 214.9396351 -17.703125 213.48828125 C-19.43257225 213.51595241 -21.16180275 213.5591787 -22.890625 213.61328125 C-27.96533893 213.66122052 -32.1929089 212.70522514 -37.0546875 211.33984375 C-42.6812721 210.0265724 -48.402297 209.38677674 -54.14208984 208.75463867 C-60.62292684 207.94711255 -67.1123595 206.67646071 -71.4140625 201.3828125 C-71.83945313 200.75761719 -72.26484375 200.13242188 -72.703125 199.48828125 C-74.87477535 198.19397953 -74.87477535 198.19397953 -77.328125 197.17578125 C-85.32436815 193.36416097 -92.69956624 187.9249431 -97.703125 180.48828125 C-97.703125 179.82828125 -97.703125 179.16828125 -97.703125 178.48828125 C-98.26 178.28203125 -98.816875 178.07578125 -99.390625 177.86328125 C-104.69997195 174.70637225 -107.79156942 169.02530656 -110.578125 163.67578125 C-110.91618164 163.0305249 -111.25423828 162.38526855 -111.60253906 161.72045898 C-119.46943595 146.39984256 -126.04305289 129.89768303 -126.703125 112.48828125 C-126.7546875 111.49699219 -126.80625 110.50570312 -126.859375 109.484375 C-127.08127354 101.80113797 -125.94973969 94.97759336 -124.16064453 87.52978516 C-123.65378641 85.26812687 -123.23336281 83.00007929 -122.82421875 80.71875 C-119.70341898 63.46275897 -115.64794849 45.38263856 -100.703125 34.48828125 C-96.203125 31.48828125 -96.203125 31.48828125 -93.703125 31.48828125 C-93.496875 30.93140625 -93.290625 30.37453125 -93.078125 29.80078125 C-91.14626606 26.55174576 -88.75332695 24.68442665 -85.703125 22.48828125 C-84.383125 22.48828125 -83.063125 22.48828125 -81.703125 22.48828125 C-81.703125 21.82828125 -81.703125 21.16828125 -81.703125 20.48828125 C-74.62593267 14.00616815 -64.49600889 10.33515544 -55.84277344 6.45117188 C-54.16510212 5.6961815 -52.49829065 4.91705188 -50.8359375 4.12890625 C-36.52307652 -1.97165745 -15.08436121 -4.04635237 0 0 Z M-40.1015625 84.328125 C-45.00328034 90.93946637 -49.65352369 101.08881171 -48.703125 109.48828125 C-47.56812311 115.66412249 -46.18678871 122.72985214 -41.90234375 127.48828125 C-39.88139331 128.78428153 -37.94618181 129.64054369 -35.703125 130.48828125 C-34.64931641 131.06255859 -34.64931641 131.06255859 -33.57421875 131.6484375 C-25.98297745 135.65454874 -18.5101344 135.41618933 -10.328125 133.30078125 C-5.9951735 131.81324829 -3.58487665 130.14888469 -0.703125 126.48828125 C0.16119141 125.47121094 0.16119141 125.47121094 1.04296875 124.43359375 C6.26990764 117.80483549 9.01533681 110.9813499 9.296875 102.48828125 C7.45213667 93.68950123 2.74929249 87.28633275 -4.53125 82.21484375 C-14.24893045 76.25748313 -31.51065529 76.04258179 -40.1015625 84.328125 Z " fill="#EA599E" transform="translate(145.703125,16.51171875)"/>
<path d="M0 0 C2.72325873 0.57892405 5.32819261 0.64101192 8.109375 0.73828125 C15.13694836 1.26312534 20.28718698 3.96614764 26.296875 7.48828125 C27.97910156 8.46087891 27.97910156 8.46087891 29.6953125 9.453125 C38.70334299 14.82290061 45.15438947 19.38261297 50.703125 28.28125 C52.35588343 30.56999636 54.01126274 32.01536925 56.234375 33.73828125 C60.7892121 37.47203766 62.90850613 41.97159294 65.5234375 47.171875 C67.19747483 50.30239855 69.02184694 52.98364962 71.171875 55.80078125 C74.53324669 60.27166821 77.41368258 64.8821436 80.171875 69.73828125 C80.74397705 70.73081909 80.74397705 70.73081909 81.32763672 71.7434082 C81.86541748 72.70766724 81.86541748 72.70766724 82.4140625 73.69140625 C82.72972168 74.25504883 83.04538086 74.81869141 83.37060547 75.39941406 C85.736695 80.73527648 86.56996795 85.87588406 86.78125 91.671875 C86.8053595 92.33107437 86.82946899 92.99027374 86.85430908 93.66944885 C86.90225398 95.05333069 86.94571797 96.43737451 86.98486328 97.8215332 C87.04663496 99.91763588 87.12986366 102.0121469 87.21484375 104.10742188 C87.45359644 110.9566429 87.31226 116.91736562 85.296875 123.48828125 C85.14692463 125.33930789 85.0369392 127.19443491 84.984375 129.05078125 C84.63609025 133.61579926 83.62555737 135.74937915 80.61328125 139.28515625 C78.72173951 142.45082255 78.16938938 145.85868797 77.421875 149.42578125 C75.89070537 156.46835991 73.58080007 160.63086135 68.296875 165.48828125 C65.51384192 168.59187312 62.93632534 171.61321681 61.296875 175.48828125 C60.636875 175.48828125 59.976875 175.48828125 59.296875 175.48828125 C58.925625 176.26171875 58.925625 176.26171875 58.546875 177.05078125 C58.134375 177.85515625 57.721875 178.65953125 57.296875 179.48828125 C56.74 180.60203125 56.183125 181.71578125 55.609375 182.86328125 C51.55855504 189.84144433 45.0536148 193.46620606 37.859375 196.61328125 C36.42273711 197.26074339 34.9865372 197.90917825 33.55078125 198.55859375 C32.85009521 198.87296387 32.14940918 199.18733398 31.42749023 199.51123047 C27.04820365 201.51946983 22.73311262 203.6198585 18.609375 206.11328125 C16.296875 207.48828125 16.296875 207.48828125 14.046875 208.36328125 C11.36516763 209.35523197 11.36516763 209.35523197 9.4375 210.72265625 C0.80210051 216.33251431 -7.90648651 214.9396351 -17.703125 213.48828125 C-19.43257225 213.51595241 -21.16180275 213.5591787 -22.890625 213.61328125 C-27.96533893 213.66122052 -32.1929089 212.70522514 -37.0546875 211.33984375 C-42.6812721 210.0265724 -48.402297 209.38677674 -54.14208984 208.75463867 C-60.62292684 207.94711255 -67.1123595 206.67646071 -71.4140625 201.3828125 C-71.83945313 200.75761719 -72.26484375 200.13242188 -72.703125 199.48828125 C-74.87477535 198.19397953 -74.87477535 198.19397953 -77.328125 197.17578125 C-85.32436815 193.36416097 -92.69956624 187.9249431 -97.703125 180.48828125 C-97.703125 179.82828125 -97.703125 179.16828125 -97.703125 178.48828125 C-98.26 178.28203125 -98.816875 178.07578125 -99.390625 177.86328125 C-104.69997195 174.70637225 -107.79156942 169.02530656 -110.578125 163.67578125 C-110.91618164 163.0305249 -111.25423828 162.38526855 -111.60253906 161.72045898 C-119.46943595 146.39984256 -126.04305289 129.89768303 -126.703125 112.48828125 C-126.7546875 111.49699219 -126.80625 110.50570312 -126.859375 109.484375 C-127.08127354 101.80113797 -125.94973969 94.97759336 -124.16064453 87.52978516 C-123.65378641 85.26812687 -123.23336281 83.00007929 -122.82421875 80.71875 C-119.70341898 63.46275897 -115.64794849 45.38263856 -100.703125 34.48828125 C-96.203125 31.48828125 -96.203125 31.48828125 -93.703125 31.48828125 C-93.496875 30.93140625 -93.290625 30.37453125 -93.078125 29.80078125 C-91.14626606 26.55174576 -88.75332695 24.68442665 -85.703125 22.48828125 C-84.383125 22.48828125 -83.063125 22.48828125 -81.703125 22.48828125 C-81.703125 21.82828125 -81.703125 21.16828125 -81.703125 20.48828125 C-74.62593267 14.00616815 -64.49600889 10.33515544 -55.84277344 6.45117188 C-54.16510212 5.6961815 -52.49829065 4.91705188 -50.8359375 4.12890625 C-36.52307652 -1.97165745 -15.08436121 -4.04635237 0 0 Z M-69.16845703 23.6706543 C-76.60093889 31.80198886 -83.40458488 34.31848807 -94 36.75 C-101.167413 38.70757378 -104.93928334 43.55213019 -108.625 49.6875 C-114.39125727 60.69020886 -114.27928789 67.66749264 -112.16796875 79.734375 C-111.01363995 86.5730456 -111.58274774 90.09458144 -115.51171875 95.69140625 C-118.94638367 100.87155663 -118.33057129 107.55167401 -117.703125 113.48828125 C-116.43613846 116.80005687 -114.69672603 119.56950608 -112.703125 122.48828125 C-110.30519333 126.75127088 -109.1680764 130.45566361 -108.42578125 135.2421875 C-107.80575212 137.67047189 -107.80575212 137.67047189 -105.7265625 139.77734375 C-103.20929869 143.1498941 -102.80121336 146.24669464 -102.265625 150.30078125 C-100.63967326 160.2689965 -100.63967326 160.2689965 -94.16992188 167.61572266 C-91.17165938 169.66353926 -88.10460247 171.56178464 -84.98046875 173.41015625 C-79.01942975 177.18998074 -76.94877943 180.81461339 -74.453125 187.30078125 C-70.58136398 196.59964057 -70.58136398 196.59964057 -62.703125 202.48828125 C-55.62530264 203.70305644 -48.75170464 202.20733875 -41.77734375 200.94921875 C-32.51302854 199.56016005 -23.94333874 199.65831583 -15.703125 204.48828125 C-14.48631207 205.53858294 -13.29690702 206.62168855 -12.140625 207.73828125 C-9.52906696 210.15366592 -7.83946753 210.95471486 -4.265625 211.11328125 C1.32440466 210.67744843 6.14571931 208.88980898 9.94140625 204.65234375 C10.51246094 203.97945312 11.08351562 203.3065625 11.671875 202.61328125 C16.1485672 197.78810403 21.49409688 196.39385991 27.68701172 194.74267578 C33.26874648 193.17585198 37.61345676 191.10098184 41.296875 186.48828125 C42.61495138 183.70873375 43.32735312 180.92295279 43.984375 177.92578125 C45.23798114 172.56183823 46.22925972 168.4823411 50.296875 164.48828125 C52.6640625 163.15234375 52.6640625 163.15234375 55.171875 162.11328125 C63.25644539 158.27874933 66.24884626 152.79827447 69.9375 144.91796875 C71.73330162 141.70823136 74.00544062 139.47717456 76.74609375 137.05859375 C79.18738891 134.5865518 80.19963318 132.51673716 80.52734375 129.05078125 C80.51316406 128.20515625 80.49898437 127.35953125 80.484375 126.48828125 C80.47792969 125.64265625 80.47148437 124.79703125 80.46484375 123.92578125 C80.30841576 121.65575648 79.92777314 119.66866521 79.296875 117.48828125 C80.286875 118.97328125 80.286875 118.97328125 81.296875 120.48828125 C83.35140116 115.35196585 84.35284105 110.14049467 82.77734375 104.69140625 C82.09309894 101.55389347 82.32315597 98.56835914 82.421875 95.36328125 C82.54126466 82.94974096 78.28850841 74.48976582 71.296875 64.48828125 C70.966875 64.48828125 70.636875 64.48828125 70.296875 64.48828125 C69.84901883 69.02384287 71.03305285 71.08307715 73.734375 74.67578125 C77.51241061 79.76658883 78.52835191 82.00692774 78.296875 88.48828125 C77.966875 89.14828125 77.636875 89.80828125 77.296875 90.48828125 C77.6371875 88.94140625 77.6371875 88.94140625 77.984375 87.36328125 C78.51935374 80.7295449 74.42252808 76.02162042 70.859375 70.67578125 C66.53294934 64.04204467 62.83061087 57.81470212 61.421875 49.92578125 C60.02141636 43.0551551 55.94291604 38.40008947 50.296875 34.42578125 C46.02566988 31.7705154 41.55051047 29.57142063 37.02685547 27.38134766 C31.28170401 24.56773976 25.80796303 21.34542093 20.33398438 18.04003906 C18.33211918 16.83680055 16.32040225 15.65470387 14.296875 14.48828125 C13.62293701 14.09922607 12.94899902 13.7101709 12.25463867 13.30932617 C7.8114974 10.89904348 4.51850194 10.00440132 -0.640625 10.17578125 C-1.85105469 10.21058594 -3.06148438 10.24539062 -4.30859375 10.28125 C-7.75224789 10.49127724 -11.14865335 10.8246206 -14.5703125 11.25390625 C-20.73829627 11.93170666 -26.11730615 11.80393297 -32.078125 9.98828125 C-49.19394644 4.96699654 -58.0815185 11.35933212 -69.16845703 23.6706543 Z " fill="#282122" transform="translate(145.703125,16.51171875)"/>
<path d="M0 0 C1.27230469 0.74443359 1.27230469 0.74443359 2.5703125 1.50390625 C3.75469439 2.19099085 4.93963473 2.87711333 6.125 3.5625 C6.75083984 3.92529053 7.37667969 4.28808105 8.02148438 4.66186523 C11.84343008 6.8501296 15.70135206 8.84519245 19.68969727 10.7109375 C28.29581755 14.75923791 33.42713191 19.06782978 37 28 C37.26423674 29.35146081 37.51280343 30.70603211 37.75 32.0625 C39.51204351 40.71253178 44.70313095 48.36898357 49.875 55.375 C52.79864288 59.41303591 54 62.00672399 54 67 C53.5625 69.4375 53.5625 69.4375 53 71 C53.33 70.01 53.66 69.02 54 68 C55.10523689 61.36857869 52.29239707 57.69014031 48.62890625 52.2578125 C47.19020111 50.13695728 47.19020111 50.13695728 46 49 C45.95936168 47.33382885 45.957279 45.66611905 46 44 C49.5817141 47.17056811 51.63158756 50.68682264 53.6875 54.9375 C53.99494141 55.54529297 54.30238281 56.15308594 54.61914062 56.77929688 C57.664071 62.9557749 58.10867756 67.72260615 58 74.5625 C57.93604418 78.59571406 57.88416457 82.12438841 59 86 C59.25436428 91.2568617 58.98256731 95.04358171 57 100 C55.45428722 97.68143083 54.20381448 95.49361571 53 93 C53.495 94.11375 53.99 95.2275 54.5 96.375 C56.31428829 101.27097414 56.76881993 105.82793865 56 111 C54.46128008 114.07743985 52.67019274 116.27263442 50.3515625 118.7890625 C47.042192 122.41636379 44.54392714 125.63240767 42.5 130.125 C39.44087167 136.62191098 35.30848356 140.05173779 28.8125 142.9375 C24.56004986 144.97769284 22.6025872 147.60580928 21 152 C20.07716128 155.52319318 19.19268702 159.03867129 18.41796875 162.59765625 C16.28900991 167.70598448 12.9806923 170.73692523 7.87231445 172.90161133 C5.61692893 173.63117043 3.35277842 174.26435518 1.0625 174.875 C-5.57345967 176.84344055 -9.78364239 178.7769443 -14.35546875 184.1640625 C-18.09878779 188.34306475 -22.92442114 190.18022017 -28.4375 190.6875 C-33.44034629 190.48119706 -36.13787178 187.89880179 -39.83203125 184.7578125 C-46.71447551 179.17745229 -54.46563666 179.3953587 -63 180 C-65.02598604 180.30043139 -67.04752332 180.63292037 -69.0625 181 C-83.2935794 183.53790716 -83.2935794 183.53790716 -89.25 181.06640625 C-93.85219921 177.7495869 -95.55895086 173.81521015 -97.484375 168.67651367 C-101.19431927 158.82909307 -105.41711402 154.13422487 -114.65380859 148.96801758 C-120.04134835 145.94017218 -122.57353502 143.76822941 -125 138 C-125.67663605 135.35100647 -126.07681769 132.70785706 -126.4375 130 C-127.40561082 123.60731933 -127.40561082 123.60731933 -130.5625 118.0625 C-133.29493279 114.62944342 -133.66453228 112.51845725 -134.40625 108.33203125 C-135.28197316 104.8925133 -137.02119846 102.11756454 -138.82421875 99.0859375 C-140.2841821 96.49583641 -141.19454729 93.85569599 -142 91 C-137.75290063 94.08366523 -133.5874244 97.25512659 -129.5625 100.625 C-128.90378906 101.17414063 -128.24507812 101.72328125 -127.56640625 102.2890625 C-125.82453281 104.19165742 -125.39061996 105.48022619 -125 108 C-124.01 107.505 -124.01 107.505 -123 107 C-121.12620395 106.92966231 -119.24998898 106.9156978 -117.375 106.9375 C-115.87066406 106.95103516 -115.87066406 106.95103516 -114.3359375 106.96484375 C-113.56507812 106.97644531 -112.79421875 106.98804688 -112 107 C-111.61781233 108.65614657 -111.28604898 110.32457024 -111 112 C-112 113 -112 113 -114.28515625 113.09765625 C-115.20167969 113.08605469 -116.11820313 113.07445312 -117.0625 113.0625 C-118.44115234 113.04896484 -118.44115234 113.04896484 -119.84765625 113.03515625 C-120.91306641 113.01775391 -120.91306641 113.01775391 -122 113 C-121.57533269 115.7317252 -121.13582303 118.45964392 -120.6875 121.1875 C-120.56955078 121.95642578 -120.45160156 122.72535156 -120.33007812 123.51757812 C-119.58728375 127.95529836 -118.67410484 131.26224562 -116 135 C-115.51080078 133.96939453 -115.51080078 133.96939453 -115.01171875 132.91796875 C-114.35623047 131.56638672 -114.35623047 131.56638672 -113.6875 130.1875 C-113.25824219 129.29417969 -112.82898438 128.40085938 -112.38671875 127.48046875 C-111.09825432 125.17575068 -110.08026285 123.60966354 -108 122 C-107.01 122 -106.02 122 -105 122 C-105.54579808 127.23966159 -106.47807092 132.31179851 -109 137 C-109.99 137.66 -110.98 138.32 -112 139 C-101.35057236 145.79884548 -101.35057236 145.79884548 -89 147 C-87.33289654 145.50014391 -87.33289654 145.50014391 -86 144 C-83.8125 144.3125 -83.8125 144.3125 -82 145 C-81.625 147.1875 -81.625 147.1875 -82 150 C-85.16359905 153.16359905 -87.62438413 155.12487683 -92 156 C-91.319375 157.0725 -90.63875 158.145 -89.9375 159.25 C-89.55464844 159.85328125 -89.17179687 160.4565625 -88.77734375 161.078125 C-83.14113082 167.17266733 -77.16511311 167.58488992 -69.3125 167.9375 C-62.91880615 168.34752695 -57.45871251 168.75239949 -51.625 171.625 C-44.19966705 175.17254071 -35.75301096 175.93451143 -27.88720703 173.28955078 C-20.47633539 170.18920703 -15.41210478 166.88212925 -11 160 C-6.97092105 157.05894237 -2.09237324 157.66280118 2.7109375 157.5390625 C6.78554129 156.87125333 8.84766548 155.65690503 12 153 C14.013999 149.92336635 14.013999 149.92336635 15.5625 146.5 C17.79946415 141.82222364 19.64930872 138.90046086 24 136 C25.051875 135.67 26.10375 135.34 27.1875 135 C30.23285876 133.29564204 30.23285876 133.29564204 30.6484375 130.35546875 C30.92742689 128.22093673 31.19942164 126.08548023 31.46484375 123.94921875 C32.27564823 119.4809167 33.57466996 117.97854786 37 115 C39.5936691 113.46978335 42.2264257 112.16999412 45 111 C44.85892253 109.54119891 44.71197585 108.08296449 44.5625 106.625 C44.44068359 105.40683594 44.44068359 105.40683594 44.31640625 104.1640625 C44.10909886 101.95727195 44.10909886 101.95727195 43 100 C42.87255127 97.23762285 42.81023697 94.51287415 42.8125 91.75 C42.81185547 90.94312744 42.81121094 90.13625488 42.81054688 89.30493164 C42.88085236 81.2126102 44.11664311 73.43347822 45.4140625 65.453125 C45.75880478 61.75033757 45.60485821 59.8184219 43.3515625 56.76953125 C41.9335741 55.23820921 40.49538239 53.72538369 39.0390625 52.23046875 C33.25660968 45.90521863 32.40929239 38.5209343 31.58984375 30.234375 C30.73874417 25.56741837 29.32155879 23.01221302 25.546875 20.12109375 C24.16242188 19.28771484 24.16242188 19.28771484 22.75 18.4375 C21.77160156 17.84195313 20.79320312 17.24640625 19.78515625 16.6328125 C17.59234262 15.34726398 15.39744507 14.06826297 13.1875 12.8125 C7.85931 9.7827449 3.51000864 7.13001263 0 2 C0 1.34 0 0.68 0 0 Z " fill="#D23484" transform="translate(170,37)"/>
<path d="M0 0 C5.82924504 1.65521164 11.24808874 1.84436421 17.2734375 1.8671875 C28.68790772 2.14998667 37.70552704 3.81536476 46.33984375 11.890625 C47.87028809 13.52895968 49.25343231 15.23780424 50.6484375 16.9921875 C54.81839797 22.02719296 60.51982241 24.80485446 66.26953125 27.73046875 C71.54912983 30.46375166 75.68964169 33.33135696 78.8359375 38.4921875 C79.7109375 41.9296875 79.7109375 41.9296875 79.8359375 44.4921875 C77.23031301 43.52438412 74.94845177 42.567596 72.6328125 41.015625 C69.83952355 39.4941408 67.37276654 38.89313911 64.26391602 38.31347656 C55.71954307 36.66601498 55.71954307 36.66601498 52.96875 33.01171875 C51.99698293 30.49718279 51.28684931 28.14699413 50.8359375 25.4921875 C49.5159375 25.4921875 48.1959375 25.4921875 46.8359375 25.4921875 C46.8359375 27.8021875 46.8359375 30.1121875 46.8359375 32.4921875 C46.04574219 32.1725 45.25554687 31.8528125 44.44140625 31.5234375 C39.95499918 30.24021814 35.78979439 30.11873438 31.1484375 29.9921875 C10.86482994 29.1765718 10.86482994 29.1765718 4.8359375 23.4921875 C0.97777553 21.24159301 -1.67822637 20.09637843 -6.1640625 20.4921875 C-5.50821061 24.10211129 -5.50821061 24.10211129 -4.1640625 27.4921875 C-5.21464844 27.86730469 -6.26523438 28.24242188 -7.34765625 28.62890625 C-17.69760388 32.38113022 -17.69760388 32.38113022 -27.3671875 37.609375 C-29.1640625 38.4921875 -29.1640625 38.4921875 -33.1640625 38.4921875 C-33.20273438 39.47058594 -33.20273438 39.47058594 -33.2421875 40.46875 C-33.6243722 46.35786873 -34.3242681 49.95424866 -38.1640625 54.4921875 C-41.29113209 56.0557223 -44.74388693 55.89177237 -48.1640625 55.4921875 C-49.1540625 54.8321875 -50.1440625 54.1721875 -51.1640625 53.4921875 C-52.81955781 53.10718859 -54.4863058 52.76425615 -56.1640625 52.4921875 C-55.8340625 54.4721875 -55.5040625 56.4521875 -55.1640625 58.4921875 C-56.17726563 58.83830078 -56.17726563 58.83830078 -57.2109375 59.19140625 C-64.39697327 61.76027909 -64.39697327 61.76027909 -69.1640625 67.4921875 C-69.62053581 68.90285501 -70.05619139 70.32034404 -70.4765625 71.7421875 C-72.6068106 78.74157411 -77.20663975 84.32853819 -83.1640625 88.4921875 C-82.69064811 85.93574982 -82.10879261 84.41267642 -80.60546875 82.25 C-78.81475694 78.82386846 -79.00086844 76.86775009 -79.4140625 73.0546875 C-79.52234375 71.96285156 -79.630625 70.87101562 -79.7421875 69.74609375 C-80.24016571 65.90520623 -80.88885838 62.09801772 -81.54296875 58.28125 C-82.34117223 48.87263875 -77.08192418 39.47149629 -71.390625 32.23828125 C-67.30337668 28.41008388 -62.48647857 26.91381003 -57.1640625 25.4921875 C-45.29106004 22.26387867 -37.81441288 16.54087528 -30.2890625 6.8046875 C-22.29845024 -2.56065375 -11.17457793 -3.33852101 0 0 Z " fill="#EC86B5" transform="translate(113.1640625,26.5078125)"/>
<path d="M0 0 C1.32 0 2.64 0 4 0 C4 1.98 4 3.96 4 6 C4.804375 6.268125 5.60875 6.53625 6.4375 6.8125 C7.7059375 7.4003125 7.7059375 7.4003125 9 8 C9.495 9.485 9.495 9.485 10 11 C13.38708325 9.93548812 15.04049387 8.95851847 17.5625 6.375 C20 4 20 4 24 4 C23.92954256 7.52287186 23.8296633 10.09853892 21.375 12.765625 C20.1065297 13.81927371 18.81369931 14.84441943 17.49609375 15.8359375 C17.00238281 16.22007813 16.50867188 16.60421875 16 17 C16 17.33 16 17.66 16 18 C17.08539063 18.23074219 18.17078125 18.46148437 19.2890625 18.69921875 C20.73457993 19.02774544 22.17988141 19.35722333 23.625 19.6875 C24.33785156 19.83638672 25.05070312 19.98527344 25.78515625 20.13867188 C30.94433818 21.34563645 34.301966 23.01542243 38 27 C39.37773786 29.70329398 40.2668005 32.47032477 41.125 35.375 C42.48610842 39.77721353 43.78630214 43.84094935 46.1953125 47.79296875 C48.40641652 51.72222502 48.05198033 53.70441367 47 58 C46.67 58 46.34 58 46 58 C46 55.69 46 53.38 46 51 C42.73539027 52.80412643 41.11070205 53.83394693 39 57 C38.56611324 58.65716749 38.17508426 60.32578542 37.8125 62 C35.52520556 70.71020207 30.74256382 79.14192074 23 84 C14.83177857 87.77587595 4.46543203 89.13625199 -4.17236328 86.28222656 C-11.12457657 83.44841889 -17.80196604 80.46003343 -22 74 C-23.0546875 71.39453125 -23.0546875 71.39453125 -23.875 68.8125 C-25.37378508 64.6317688 -25.37378508 64.6317688 -29.25 62.375 C-30.61125 62.189375 -30.61125 62.189375 -32 62 C-30.71681196 70.02361257 -28.53820427 74.17072394 -22.16015625 79.2109375 C-19.3631027 81.52748456 -17.82198836 83.88743656 -16 87 C-14.8448749 88.38177162 -14.8448749 88.38177162 -11.6875 88.125 C-8.85351237 88.02893262 -6.66404901 87.85249568 -4 87 C-3.67 87.66 -3.34 88.32 -3 89 C2.5392245 92.38782927 8.53118277 94.42055696 15 93 C17.6866867 91.57006914 19.6596167 89.99181557 22 88 C22.99 88.495 22.99 88.495 24 89 C19.7977876 93.045683 16.40087681 95.43894938 10.4375 95.5625 C5.71350985 95.30365122 2.33108283 93.89959773 -2 92 C-4.01735839 91.82778648 -6.03946616 91.70701489 -8.0625 91.625 C-13.83776102 91.26404619 -16.16757495 90.3237616 -20 86 C-20.433125 85.195625 -20.86625 84.39125 -21.3125 83.5625 C-23.15734714 80.76106546 -24.536039 79.94776416 -27.375 78.25 C-32.40600529 74.99705359 -35.21476322 71.77145041 -37 66 C-37.46501466 62.16666172 -37.68555762 58.41094812 -37.76171875 54.55078125 C-37.99990777 51.00137445 -38.83335211 48.33715559 -40 45 C-40.73335518 39.57317167 -41.028707 34.70569514 -37.625 30.1875 C-37.15964844 29.64480469 -36.69429688 29.10210937 -36.21484375 28.54296875 C-34.76511315 26.90892089 -34.76511315 26.90892089 -34.1875 24 C-31.75594339 17.85712015 -26.14771271 14.30405079 -20.25 11.75 C-19.49332031 11.45222656 -18.73664063 11.15445313 -17.95703125 10.84765625 C-15.84707928 10.05275632 -15.84707928 10.05275632 -13.9375 8.1875 C-10.68543678 6.19429996 -7.65378148 7.33014006 -4 8 C-3.71125 7.05125 -3.4225 6.1025 -3.125 5.125 C-2 2 -2 2 0 0 Z M-13.3984375 32.83984375 C-18.30015534 39.45118512 -22.95039869 49.60053046 -22 58 C-20.86499811 64.17584124 -19.48366371 71.24157089 -15.19921875 76 C-13.17826831 77.29600028 -11.24305681 78.15226244 -9 79 C-7.94619141 79.57427734 -7.94619141 79.57427734 -6.87109375 80.16015625 C0.72014755 84.16626749 8.1929906 83.92790808 16.375 81.8125 C20.7079515 80.32496704 23.11824835 78.66060344 26 75 C26.86431641 73.98292969 26.86431641 73.98292969 27.74609375 72.9453125 C32.97303264 66.31655424 35.71846181 59.49306865 36 51 C34.15526167 42.20121998 29.45241749 35.7980515 22.171875 30.7265625 C12.45419455 24.76920188 -4.80753029 24.55430054 -13.3984375 32.83984375 Z " fill="#D03184" transform="translate(119,68)"/>
<path d="M0 0 C0.99 0.33 1.98 0.66 3 1 C6.03698987 23.09952449 6.03698987 23.09952449 3.4921875 31.83203125 C2.90399346 34.42288595 2.81053238 36.91006654 2.6875 39.5625 C2.33921525 44.12751801 1.32868237 46.2610979 -1.68359375 49.796875 C-3.57513549 52.9625413 -4.12748562 56.37040672 -4.875 59.9375 C-6.40616963 66.98007866 -8.71607493 71.1425801 -14 76 C-16.78303308 79.10359187 -19.36054966 82.12493556 -21 86 C-21.66 86 -22.32 86 -23 86 C-23.37125 86.7734375 -23.37125 86.7734375 -23.75 87.5625 C-24.36875 88.7690625 -24.36875 88.7690625 -25 90 C-25.556875 91.11375 -26.11375 92.2275 -26.6875 93.375 C-30.73831996 100.35316308 -37.2432602 103.97792481 -44.4375 107.125 C-45.87413789 107.77246214 -47.3103378 108.420897 -48.74609375 109.0703125 C-49.44677979 109.38468262 -50.14746582 109.69905273 -50.86938477 110.02294922 C-55.24867135 112.03118858 -59.56376238 114.13157725 -63.6875 116.625 C-66 118 -66 118 -68.25 118.875 C-70.93170737 119.86695072 -70.93170737 119.86695072 -72.859375 121.234375 C-81.49477449 126.84423306 -90.20336151 125.45135385 -100 124 C-101.72944725 124.02767116 -103.45867775 124.07089745 -105.1875 124.125 C-110.26221393 124.17293927 -114.4897839 123.21694389 -119.3515625 121.8515625 C-124.9781471 120.53829115 -130.699172 119.89849549 -136.43896484 119.26635742 C-142.91980184 118.4588313 -149.4092345 117.18817946 -153.7109375 111.89453125 C-154.13632813 111.26933594 -154.56171875 110.64414063 -155 110 C-157.17165035 108.70569828 -157.17165035 108.70569828 -159.625 107.6875 C-167.62124315 103.87587972 -174.99644124 98.43666185 -180 91 C-180 90.34 -180 89.68 -180 89 C-180.556875 88.79375 -181.11375 88.5875 -181.6875 88.375 C-186.99744787 85.2177337 -190.08732416 79.53696002 -192.875 74.1875 C-193.21233154 73.54586914 -193.54966309 72.90423828 -193.8972168 72.24316406 C-209.31185917 42.30048256 -209.31185917 42.30048256 -205 28 C-202.0987327 30.9012673 -201.83700369 34.42898384 -200.9375 38.3125 C-197.25799357 53.1575529 -191.08995128 72.91004872 -180 84 C-178.2984375 84.185625 -178.2984375 84.185625 -176.5625 84.375 C-173 85 -173 85 -171.0625 87.0625 C-170.711875 87.701875 -170.36125 88.34125 -170 89 C-171.65 88.67 -173.3 88.34 -175 88 C-174.34 88.78375 -173.68 89.5675 -173 90.375 C-171 93 -171 93 -171 95 C-170.45859375 95.25523437 -169.9171875 95.51046875 -169.359375 95.7734375 C-166.54508212 97.23649704 -163.91789308 98.90992588 -161.25 100.625 C-159.77273437 101.57246094 -159.77273437 101.57246094 -158.265625 102.5390625 C-157.51796875 103.02117187 -156.7703125 103.50328125 -156 104 C-158.45736271 95.11838908 -160.86915657 88.6528588 -169.0625 83.8125 C-170.25674859 83.14339448 -171.45586109 82.48288073 -172.66015625 81.83203125 C-179.56931213 78.04209662 -182.71420859 74.45038615 -185 67 C-185.35154071 64.79754421 -185.66242847 62.58830703 -185.9375 60.375 C-186.59078805 55.30171802 -187.57675414 52.51987738 -190.84375 48.6640625 C-192.62905782 46.09466679 -192.86819585 43.38581012 -193.39453125 40.34765625 C-194.30859292 36.80345582 -196.1440089 33.9305548 -198.07421875 30.84765625 C-198.53248047 29.93306641 -198.53248047 29.93306641 -199 29 C-198.67 28.34 -198.34 27.68 -198 27 C-193.39417366 33.18150377 -191.01903281 38.09775918 -189.7578125 45.71875 C-189.10293289 48.17511791 -189.10293289 48.17511791 -187.0234375 50.2890625 C-184.50395815 53.66458117 -184.03958019 56.8091493 -183.5 60.875 C-182.65836063 67.14580598 -181.5133485 73.04446586 -176.44384766 77.30908203 C-174.68869093 78.4996011 -172.90562462 79.57622519 -171.0625 80.625 C-163.27232993 85.18509955 -158.86269737 89.43473449 -155.625 97.9375 C-152.62142889 105.49138462 -152.62142889 105.49138462 -147.0625 111.21875 C-139.7519352 113.98790333 -131.49341393 111.79930212 -124.07421875 110.4609375 C-114.80990354 109.0718788 -106.24021374 109.17003458 -98 114 C-96.78318707 115.05030169 -95.59378202 116.1334073 -94.4375 117.25 C-91.82594196 119.66538467 -90.13634253 120.46643361 -86.5625 120.625 C-80.97247034 120.18916718 -76.15115569 118.40152773 -72.35546875 114.1640625 C-71.78441406 113.49117188 -71.21335938 112.81828125 -70.625 112.125 C-66.12786474 107.27708819 -60.72985582 105.87080551 -54.52197266 104.16650391 C-49.20152505 102.65663175 -45.77590394 101.13254854 -42 97 C-40.77564058 94.26068952 -40.08997651 91.4846808 -39.4375 88.5625 C-38.02655124 82.41977633 -36.55810636 78.48437228 -32 74 C-29.53515625 72.6015625 -29.53515625 72.6015625 -27.0625 71.625 C-20.24860296 68.45598102 -17.14896032 63.60115492 -14.0625 56.9375 C-12.24800518 53.040547 -9.76170819 50.49743182 -6.5859375 47.640625 C-2.74522329 43.66747237 -2.64839868 39.90106957 -2.7265625 34.6015625 C-2.9991419 32.00816416 -3.58076791 30.02979329 -4.5625 27.625 C-6 24 -6 24 -5 20 C-4.01 22.64 -3.02 25.28 -2 28 C0.469315 24.29602751 0.35392593 21.28826533 0 17 C-0.26683594 16.09314453 -0.26683594 16.09314453 -0.5390625 15.16796875 C-1.18798812 12.11581858 -0.84143979 9.34933101 -0.5625 6.25 C-0.46066406 5.07953125 -0.35882813 3.9090625 -0.25390625 2.703125 C-0.17011719 1.81109375 -0.08632812 0.9190625 0 0 Z " fill="#261E1F" transform="translate(228,106)"/>
<path d="M0 0 C2.72325873 0.57892405 5.32819261 0.64101192 8.109375 0.73828125 C15.13694836 1.26312534 20.28718698 3.96614764 26.296875 7.48828125 C27.41835937 8.13667969 28.53984375 8.78507812 29.6953125 9.453125 C38.70334299 14.82290061 45.15438947 19.38261297 50.703125 28.28125 C52.35588343 30.56999636 54.01126274 32.01536925 56.234375 33.73828125 C60.7892121 37.47203766 62.90850613 41.97159294 65.5234375 47.171875 C67.19747483 50.30239855 69.02184694 52.98364962 71.171875 55.80078125 C74.53324669 60.27166821 77.41368258 64.8821436 80.171875 69.73828125 C80.74397705 70.73081909 80.74397705 70.73081909 81.32763672 71.7434082 C85.4193192 79.07993282 86.5961102 85.60940106 86.421875 93.92578125 C86.41285156 94.75271484 86.40382812 95.57964844 86.39453125 96.43164062 C86.37119012 98.45064833 86.33532788 100.46950481 86.296875 102.48828125 C85.966875 102.48828125 85.636875 102.48828125 85.296875 102.48828125 C85.296875 98.52828125 85.296875 94.56828125 85.296875 90.48828125 C84.306875 90.15828125 83.316875 89.82828125 82.296875 89.48828125 C81.375 87.1875 81.375 87.1875 80.546875 84.17578125 C78.4358409 77.3066742 75.11696434 71.5403329 71.296875 65.48828125 C71.8479418 69.78815456 73.369596 72.35244137 75.859375 75.86328125 C78.7729694 80.31128909 80.25559262 83.05554806 79.296875 88.48828125 C78.80380859 89.84373047 78.80380859 89.84373047 78.30078125 91.2265625 C77.18830048 94.84104284 76.88532617 98.09231061 76.671875 101.86328125 C76.59710938 103.10851562 76.52234375 104.35375 76.4453125 105.63671875 C76.37183594 107.04824219 76.37183594 107.04824219 76.296875 108.48828125 C75.966875 108.48828125 75.636875 108.48828125 75.296875 108.48828125 C75.24266799 105.92549426 75.20310493 103.36386642 75.171875 100.80078125 C75.15511719 100.07955078 75.13835937 99.35832031 75.12109375 98.61523438 C75.09199625 95.42905838 75.13782996 92.87196289 76.3671875 89.90625 C77.72649966 86.3708961 77.22094628 84.13757969 76.296875 80.48828125 C74.92870845 77.90710105 73.26862381 75.59393542 71.546875 73.23828125 C66.44238956 65.91327213 61.95488913 58.720465 60.359375 49.80078125 C59.23568521 44.03800518 56.1511257 39.80487077 51.6171875 36.125 C47.03145544 33.10392759 42.00507321 30.83440611 37.07763672 28.43212891 C31.32374733 25.58940639 25.82620149 22.35627624 20.33422852 19.0402832 C18.33230719 17.83691488 16.32050174 16.65476122 14.296875 15.48828125 C13.62293701 15.09922607 12.94899902 14.7101709 12.25463867 14.30932617 C7.8114974 11.89904348 4.51850194 11.00440132 -0.640625 11.17578125 C-1.85105469 11.21058594 -3.06148437 11.24539062 -4.30859375 11.28125 C-7.75224789 11.49127724 -11.14865335 11.8246206 -14.5703125 12.25390625 C-21.87227138 13.05631931 -27.86613531 12.35568966 -34.87890625 10.21484375 C-38.76347478 9.21549417 -42.58966466 8.98366962 -46.5859375 8.796875 C-47.28460938 8.69503906 -47.98328125 8.59320313 -48.703125 8.48828125 C-49.033125 7.82828125 -49.363125 7.16828125 -49.703125 6.48828125 C-49.373125 5.49828125 -49.043125 4.50828125 -48.703125 3.48828125 C-43.36573435 1.04380909 -37.41131314 0.5933756 -31.640625 -0.13671875 C-30.10124268 -0.33237427 -30.10124268 -0.33237427 -28.53076172 -0.53198242 C-18.82261223 -1.70810011 -9.56006007 -2.56446867 0 0 Z " fill="#252222" transform="translate(145.703125,16.51171875)"/>
<path d="M0 0 C0.495 2.475 0.495 2.475 1 5 C1.66 4.34 2.32 3.68 3 3 C5.76129145 5.76129145 4.23539154 14.15349371 4.25 17.875 C4.270625 19.18082031 4.29125 20.48664063 4.3125 21.83203125 C4.32023437 23.70568359 4.32023437 23.70568359 4.328125 25.6171875 C4.3374707 26.76815918 4.34681641 27.91913086 4.35644531 29.10498047 C4 32 4 32 2.64208984 33.81396484 C0.3546315 35.46613146 -2.06269613 36.57147264 -4.625 37.75 C-11.24624777 40.97244746 -16.92928267 44.83640653 -22.06640625 50.12890625 C-24.5645849 52.54633569 -26.62541104 53.24243921 -30 54 C-32.5 53.625 -32.5 53.625 -35 53 C-36.010625 53.020625 -37.02125 53.04125 -38.0625 53.0625 C-41 53 -41 53 -42.65234375 52.0234375 C-46.76381832 50.23108086 -51.36766425 50.60051278 -55.80078125 50.52148438 C-59.06785021 50.40419031 -61.56746487 50.23300866 -64.47265625 48.66796875 C-66.75944422 46.17063253 -67.08363026 43.23424613 -68 40 C-70.11187435 36.32377428 -72.62266447 33.35978504 -75.6875 30.4375 C-78.28303885 27.70166175 -78.92928575 25.56415839 -80 22 C-73.08194467 25.89062425 -67.89059877 29.61502867 -63.33984375 36.1796875 C-62.1160194 38.13167097 -62.1160194 38.13167097 -60 39 C-58.10639696 39.15516626 -56.20981711 39.27501591 -54.3125 39.375 C-50.45570386 39.6544116 -48.01692638 39.99257615 -44.4375 41.5625 C-39.60703187 43.58251394 -35.16284933 43.86822691 -30 43 C-27.43257307 41.58348859 -26.02034074 40.18415215 -24 38 C-24.969375 38.825 -25.93875 39.65 -26.9375 40.5 C-30.53224229 43.0264253 -33.20901043 43.73380118 -37.578125 43.5078125 C-42.11318422 42.55691299 -46.02851798 40.32153438 -50 38 C-50 37.34 -50 36.68 -50 36 C-50.66 36.66 -51.32 37.32 -52 38 C-55.07700639 38.62870072 -57.92105457 38.6104344 -61 38 C-63.16607557 35.93238241 -64.42891425 34.43407652 -66 32 C-68.33501308 28.98517299 -70.60682146 26.29259798 -73.6875 24 C-76.56495936 21.5113865 -77.17396489 19.67961095 -78 16 C-78.125 13.125 -78.125 13.125 -78 11 C-75.25 11 -75.25 11 -72 12 C-69.56655232 15.36506461 -68.25661702 19.34562661 -66.75 23.1875 C-64.25184432 27.20239305 -61.11554975 28.82971891 -57 31 C-56.34128906 31.39574219 -55.68257812 31.79148438 -55.00390625 32.19921875 C-46.31017777 36.88298551 -35.87011745 36.09917679 -26.5625 33.625 C-19.13551312 30.78615172 -15.15182812 25.33586924 -11.6953125 18.37109375 C-10.15324855 14.68477299 -8.97386551 10.99570275 -8 7.125 C-6.56075454 2.62735795 -4.91064911 0 0 0 Z " fill="#F6A8CA" transform="translate(165,119)"/>
<path d="M0 0 C0.99 0.66 1.98 1.32 3 2 C3 2.66 3 3.32 3 4 C3.66 4 4.32 4 5 4 C5.37125 5.010625 5.7425 6.02125 6.125 7.0625 C7.37058893 10.01632519 8.82563 12.09004583 11 14.4375 C14.99761991 18.88261468 16.63024493 23.30607021 17.4375 29.1875 C16.12825837 40.59660565 11.63600142 51.95836692 3.1875 60 C-5.09295452 65.19557931 -15.37190955 66.90224115 -25 65 C-32.64754822 62.47316343 -40.50659816 58.89947972 -45 52 C-45.94327731 49.94667813 -46.81907092 47.86101423 -47.625 45.75 C-48.90751237 41.58662865 -48.90751237 41.58662865 -52 39 C-51.67 38.34 -51.34 37.68 -51 37 C-50.34 37.33 -49.68 37.66 -49 38 C-49.0825 36.96875 -49.165 35.9375 -49.25 34.875 C-49.25 24.47915165 -45.38829135 14.58775914 -38.25 7.125 C-37.5075 6.42375 -36.765 5.7225 -36 5 C-38.31 5.66 -40.62 6.32 -43 7 C-38.91682 2.12396952 -35.08263537 2.01999221 -29.00390625 1.31640625 C-18.96149949 0.44541916 -9.44687424 -0.04866039 0 4 C0 2.68 0 1.36 0 0 Z M-36.3984375 10.83984375 C-41.30015534 17.45118512 -45.95039869 27.60053046 -45 36 C-43.86499811 42.17584124 -42.48366371 49.24157089 -38.19921875 54 C-36.17826831 55.29600028 -34.24305681 56.15226244 -32 57 C-30.94619141 57.57427734 -30.94619141 57.57427734 -29.87109375 58.16015625 C-22.27985245 62.16626749 -14.8070094 61.92790808 -6.625 59.8125 C-2.2920485 58.32496704 0.11824835 56.66060344 3 53 C3.86431641 51.98292969 3.86431641 51.98292969 4.74609375 50.9453125 C9.97303264 44.31655424 12.71846181 37.49306865 13 29 C11.15526167 20.20121998 6.45241749 13.7980515 -0.828125 8.7265625 C-10.54580545 2.76920188 -27.80753029 2.55430054 -36.3984375 10.83984375 Z " fill="#211E1C" transform="translate(142,90)"/>
<path d="M0 0 C0.33 0 0.66 0 1 0 C5.00112466 20.47003956 5.00112466 20.47003956 0.5625 27.5 C0.11003906 28.1084375 -0.34242187 28.716875 -0.80859375 29.34375 C-3.90572341 33.64926796 -3.57059325 38.94798547 -3 44 C-1.87624027 47.39819559 -0.30947038 50.47307689 1.375 53.625 C6.04550313 62.61571853 6.04550313 62.61571853 7.0390625 67.2734375 C8.05950068 71.23074654 9.47808129 72.8870862 12 76 C12.65234375 78.98046875 12.65234375 78.98046875 12.9375 82.1875 C13.88253263 89.00249137 14.84466403 95.67013032 20.52148438 100.21923828 C23.46450075 102.28149192 26.50782288 104.11061483 29.625 105.89453125 C35.31846874 109.44635955 38.38691175 112.96727938 40.875 119.1875 C41.30554688 120.23292969 41.73609375 121.27835937 42.1796875 122.35546875 C43 125 43 125 42 127 C33.98586632 122.12976465 27.76305637 117.47062863 22 110 C23.485 109.505 23.485 109.505 25 109 C25 108.67 25 108.34 25 108 C23.4840625 108.0309375 23.4840625 108.0309375 21.9375 108.0625 C18.39780319 107.50098183 16.84527092 106.2298574 14.5625 103.5 C9.66496206 96.5709721 6.32042282 88.7718269 3 81 C2.71205566 80.3301709 2.42411133 79.6603418 2.12744141 78.97021484 C-4.05706289 64.31809038 -9.31674557 47.05024635 -7 31 C-6.03036845 29.64442174 -5.0359008 28.30563674 -4 27 C-4.33 26.01 -4.66 25.02 -5 24 C-4.65454102 21.45629883 -4.65454102 21.45629883 -4.00390625 18.45703125 C-3.77509766 17.38388672 -3.54628906 16.31074219 -3.31054688 15.20507812 C-3.06369141 14.08552734 -2.81683594 12.96597656 -2.5625 11.8125 C-2.31951172 10.68134766 -2.07652344 9.55019531 -1.82617188 8.38476562 C-1.22439291 5.58826338 -0.61540548 2.79352957 0 0 Z " fill="#AE845D" transform="translate(30,84)"/>
<path d="M0 0 C1.01018188 0.23614014 1.01018188 0.23614014 2.04077148 0.47705078 C4.37192857 1.02971414 6.68460463 1.63485371 9 2.25 C10.17175781 2.53810547 10.17175781 2.53810547 11.3671875 2.83203125 C16.60962481 4.23530992 20.22371217 5.91042014 24 10 C25.39746355 12.72417831 26.30994888 15.50978599 27.1875 18.4375 C27.65640676 19.91655852 28.1290057 21.39445208 28.60546875 22.87109375 C28.94263916 23.92079346 28.94263916 23.92079346 29.28662109 24.99169922 C30.28115425 27.79150406 31.59573212 30.38615625 33 33 C31.02 33.99 29.04 34.98 27 36 C26.90203125 35.443125 26.8040625 34.88625 26.703125 34.3125 C25.05810485 25.91722473 22.18545818 19.77328903 16.171875 13.640625 C15 12 15 12 15 8 C14.34 8 13.68 8 13 8 C12.34 7.01 11.68 6.02 11 5 C10.67 6.32 10.34 7.64 10 9 C8.845 8.505 7.69 8.01 6.5 7.5 C-4.45407354 3.87157062 -17.91155983 5.71561458 -29 8 C-29.33 8.33 -29.66 8.66 -30 9 C-28.35 8.67 -26.7 8.34 -25 8 C-25.58007812 8.61875 -25.58007812 8.61875 -26.171875 9.25 C-34.70432966 18.7117319 -37.61309864 29.51788775 -39 42 C-39.495 42.495 -39.495 42.495 -40 43 C-39.67 43.66 -39.34 44.32 -39 45 C-40.98 44.67 -42.96 44.34 -45 44 C-43.71681196 52.02361257 -41.53820427 56.17072394 -35.16015625 61.2109375 C-32.3631027 63.52748456 -30.82198836 65.88743656 -29 69 C-27.8448749 70.38177162 -27.8448749 70.38177162 -24.6875 70.125 C-21.85351237 70.02893262 -19.66404901 69.85249568 -17 69 C-16.505 69.99 -16.505 69.99 -16 71 C-10.4607755 74.38782927 -4.46881723 76.42055696 2 75 C4.6866867 73.57006914 6.6596167 71.99181557 9 70 C9.99 70.495 9.99 70.495 11 71 C6.7977876 75.045683 3.40087681 77.43894938 -2.5625 77.5625 C-7.28649015 77.30365122 -10.66891717 75.89959773 -15 74 C-17.01735839 73.82778648 -19.03946616 73.70701489 -21.0625 73.625 C-26.83776102 73.26404619 -29.16757495 72.3237616 -33 68 C-33.515625 67.13375 -34.03125 66.2675 -34.5625 65.375 C-35.84566628 62.8315573 -35.84566628 62.8315573 -38.4375 61.5625 C-42.06442422 59.35096084 -44.16728749 56.31131102 -45.609375 52.30859375 C-46.30638351 48.18927346 -46.03637611 44.00796132 -45.9609375 39.84375 C-45.92214167 36.37798915 -46.02068648 33.32528097 -47 30 C-47.38407789 26.93286369 -47.47518218 24.06105727 -47 21 C-45 18.4375 -45 18.4375 -42 16 C-40.65451553 14.67892956 -39.32201852 13.34455293 -38 12 C-36.66666667 10.66666667 -35.33333333 9.33333333 -34 8 C-33.32839844 7.14148438 -32.65679687 6.28296875 -31.96484375 5.3984375 C-27.56922285 1.84255973 -23.05778015 1.44498538 -17.5625 0.625 C-16.02625977 0.36009766 -16.02625977 0.36009766 -14.45898438 0.08984375 C-9.37226011 -0.73325079 -5.05247547 -1.32045439 0 0 Z " fill="#AF855D" transform="translate(132,86)"/>
<path d="M0 0 C1.43436401 0.00688843 1.43436401 0.00688843 2.89770508 0.01391602 C28.29265343 0.32671781 28.29265343 0.32671781 37.0625 3.25 C36.7325 4.57 36.4025 5.89 36.0625 7.25 C34.29990845 7.23428955 34.29990845 7.23428955 32.50170898 7.21826172 C28.12022985 7.18191784 23.73876392 7.15904732 19.35717773 7.14013672 C17.46490229 7.13011185 15.57264222 7.11648845 13.68041992 7.09912109 C10.9522725 7.07471778 8.22433085 7.06348155 5.49609375 7.0546875 C4.23786049 7.03920364 4.23786049 7.03920364 2.95420837 7.02340698 C-2.06316024 7.02245992 -6.21324058 7.50555309 -10.9375 9.25 C-13.13293338 11.37660346 -13.13293338 11.37660346 -14.8125 14 C-21.30296155 22.6415149 -31.47884435 28.83313976 -42.26953125 30.640625 C-42.94371094 30.69734375 -43.61789063 30.7540625 -44.3125 30.8125 C-48.57242523 31.32662891 -50.52219713 32.7256457 -53.9375 35.25 C-54.989375 35.745 -56.04125 36.24 -57.125 36.75 C-60.07829833 38.32509244 -61.31973554 39.35505307 -62.9375 42.25 C-64.33091265 47.51729746 -64.24007344 52.97661103 -64.3671875 58.39257812 C-64.59098025 63.91746167 -65.7663902 68.15892166 -67.9375 73.25 C-68.2675 73.25 -68.5975 73.25 -68.9375 73.25 C-69.03719463 69.12417603 -69.10935233 64.99882903 -69.15722656 60.87207031 C-69.1772063 59.47155527 -69.2044002 58.07112218 -69.23925781 56.67089844 C-69.63678205 40.2788697 -69.63678205 40.2788697 -63.2109375 33.40234375 C-58.0675995 30.11103075 -52.75630602 27.94210545 -47.0625 25.8125 C-35.45861479 21.44861538 -27.12907488 16.17830239 -19.08251953 6.69287109 C-13.29663704 -0.03707622 -8.39456315 -0.08299813 0 0 Z " fill="#EEA2C4" transform="translate(104.9375,30.75)"/>
<path d="M0 0 C0.41529147 6.43701786 -0.38384152 10.64228651 -2.9921875 16.515625 C-3.97752206 18.94458926 -4.52540884 21.17857882 -5 23.75 C-6.04236849 28.88026579 -8.1160272 32.43899397 -12.1875 35.8125 C-14.87461626 36.9470602 -16.52079824 37.18601211 -19.375 37.375 C-22.94399757 37.64002457 -24.74943471 38.27889114 -27.5 40.5625 C-30.84659176 43.20130683 -33.3431363 43.72686364 -37.578125 43.5078125 C-42.11318422 42.55691299 -46.02851798 40.32153438 -50 38 C-50 37.34 -50 36.68 -50 36 C-50.66 36.66 -51.32 37.32 -52 38 C-55.07700639 38.62870072 -57.92105457 38.6104344 -61 38 C-63.16607557 35.93238241 -64.42891425 34.43407652 -66 32 C-68.33501308 28.98517299 -70.60682146 26.29259798 -73.6875 24 C-76.56495936 21.5113865 -77.17396489 19.67961095 -78 16 C-78.125 13.125 -78.125 13.125 -78 11 C-75.25 11 -75.25 11 -72 12 C-69.56655232 15.36506461 -68.25661702 19.34562661 -66.75 23.1875 C-64.25184432 27.20239305 -61.11554975 28.82971891 -57 31 C-56.34128906 31.39574219 -55.68257812 31.79148438 -55.00390625 32.19921875 C-46.31017777 36.88298551 -35.87011745 36.09917679 -26.5625 33.625 C-19.13551312 30.78615172 -15.15182812 25.33586924 -11.6953125 18.37109375 C-10.15324855 14.68477299 -8.97386551 10.99570275 -8 7.125 C-6.56075454 2.62735795 -4.91064911 0 0 0 Z " fill="#AF957F" transform="translate(165,119)"/>
<path d="M0 0 C5.96791164 1.69384936 11.62928881 1.98170124 17.8046875 2.06640625 C19.81396554 2.10089481 21.82312452 2.14352971 23.83203125 2.1953125 C25.14095337 2.21380249 25.14095337 2.21380249 26.47631836 2.23266602 C29.0176475 2.52097569 30.67086957 3.22582294 32.8671875 4.50390625 C32.8671875 5.16390625 32.8671875 5.82390625 32.8671875 6.50390625 C26.95837632 7.65351169 21.75784672 7.24690369 15.8046875 6.56640625 C7.82003516 5.75669312 -0.10613429 5.25576058 -8.1328125 5.19140625 C-9.04554932 5.17408447 -9.95828613 5.1567627 -10.89868164 5.13891602 C-16.71294776 5.14272437 -21.15788467 5.63690651 -25.55273438 9.87231445 C-27.04278551 11.48443049 -28.46378064 13.14158019 -29.8828125 14.81640625 C-38.2709481 24.19645175 -47.4172252 28.26421013 -59.08984375 32.61450195 C-63.77749011 34.39181077 -67.30482151 36.1719992 -71.1328125 39.50390625 C-71.7928125 39.50390625 -72.4528125 39.50390625 -73.1328125 39.50390625 C-73.4628125 40.16390625 -73.7928125 40.82390625 -74.1328125 41.50390625 C-74.06615437 38.17099989 -73.91358407 35.5154133 -71.82421875 32.80859375 C-67.41474764 28.7555464 -62.8425227 27.02897542 -57.1328125 25.50390625 C-45.25981004 22.27559742 -37.78316288 16.55259403 -30.2578125 6.81640625 C-22.27903526 -2.53506385 -11.16376335 -3.33101803 0 0 Z " fill="#E986B3" transform="translate(113.1328125,26.49609375)"/>
<path d="M0 0 C3.38985384 1.09684443 6.13899439 1.15927134 9.69140625 1.1796875 C17.66727132 1.65723404 22.54058628 4.65316548 29.06640625 8.9921875 C31.16579464 10.16743082 33.2699394 11.33422061 35.37890625 12.4921875 C46.91400468 19.22856388 46.91400468 19.22856388 48.7421875 25.19921875 C48.84917969 25.79089844 48.95617187 26.38257812 49.06640625 26.9921875 C43.56121957 24.75365464 38.42960011 22.0937244 33.25390625 19.1796875 C32.46363037 18.73826416 31.67335449 18.29684082 30.85913086 17.84204102 C25.81444242 15.01239693 20.82497457 12.10819212 15.9140625 9.05078125 C11.77496945 6.6793347 7.9278018 6.90856614 3.3203125 7 C1.74414737 7.01754367 0.16797503 7.03444925 -1.40820312 7.05078125 C-3.87642775 7.08147874 -6.34428315 7.11667805 -8.81225586 7.16357422 C-18.64089038 7.34034465 -27.47657497 7.11760403 -36.93359375 3.9921875 C-36.93359375 3.3321875 -36.93359375 2.6721875 -36.93359375 1.9921875 C-7.77795366 -2.67205332 -7.77795366 -2.67205332 0 0 Z " fill="#C5AE90" transform="translate(141.93359375,20.0078125)"/>
<path d="M0 0 C0.99 0.495 0.99 0.495 2 1 C2.07421454 4.93260944 2.12863136 8.86494722 2.16479492 12.7980957 C2.18728333 14.79327701 2.22540198 16.78826213 2.26367188 18.78320312 C2.27333984 20.03681641 2.28300781 21.29042969 2.29296875 22.58203125 C2.3086792 23.73936768 2.32438965 24.8967041 2.34057617 26.08911133 C2 29 2 29 0.6081543 30.83251953 C-4.76042112 34.72997325 -11.02350236 36.11711198 -17.5 36.875 C-23.31904163 37.61349177 -26.89383351 39.51255567 -31.71484375 42.7265625 C-35.38991889 44.77455309 -37.86984464 44.5696766 -42 44 C-42.58136719 43.66742188 -43.16273437 43.33484375 -43.76171875 42.9921875 C-47.98859337 41.11849439 -52.80871414 41.63873713 -57.37109375 41.5390625 C-61.42921383 40.93624165 -63.09034864 39.81434486 -66 37 C-65.67 36.01 -65.34 35.02 -65 34 C-64.01 34.66 -63.02 35.32 -62 36 C-59.26592558 36.34875005 -59.26592558 36.34875005 -56.25 36.4375 C-52.39170165 36.6870187 -50.02053857 36.99099186 -46.4375 38.5625 C-41.57305342 40.59672311 -37.19436156 40.95606365 -32 40 C-29.77739672 38.66888045 -27.98103536 37.1635086 -26.04296875 35.44921875 C-23.58911197 33.70852876 -21.70936232 33.37384393 -18.75 32.9375 C-15.1763242 32.38939021 -14.2531004 32.23411787 -11.5 29.6875 C-9.07989329 25.35147548 -7.74058258 21.15151134 -6.6875 16.3125 C-5.26158663 10.38099438 -2.97043803 5.30686952 0 0 Z " fill="#F189B9" transform="translate(167,122)"/>
<path d="M0 0 C0.99 0.33 1.98 0.66 3 1 C2.32904297 1.53173828 2.32904297 1.53173828 1.64453125 2.07421875 C-7.05353574 9.73371058 -9.30977386 20.38970946 -10.640625 31.515625 C-11 34 -11 34 -12 35 C-11.67 35.66 -11.34 36.32 -11 37 C-12.98 36.67 -14.96 36.34 -17 36 C-15.71681196 44.02361257 -13.53820427 48.17072394 -7.16015625 53.2109375 C-4.3631027 55.52748456 -2.82198836 57.88743656 -1 61 C0.1551251 62.38177162 0.1551251 62.38177162 3.3125 62.125 C6.14648763 62.02893262 8.33595099 61.85249568 11 61 C11.33 61.66 11.66 62.32 12 63 C17.5392245 66.38782927 23.53118277 68.42055696 30 67 C32.6866867 65.57006914 34.6596167 63.99181557 37 62 C37.99 62.495 37.99 62.495 39 63 C34.7977876 67.045683 31.40087681 69.43894938 25.4375 69.5625 C20.71350985 69.30365122 17.33108283 67.89959773 13 66 C10.98264161 65.82778648 8.96053384 65.70701489 6.9375 65.625 C1.16223898 65.26404619 -1.16757495 64.3237616 -5 60 C-5.515625 59.13375 -6.03125 58.2675 -6.5625 57.375 C-7.84566628 54.8315573 -7.84566628 54.8315573 -10.4375 53.5625 C-14.06442422 51.35096084 -16.16728749 48.31131102 -17.609375 44.30859375 C-18.30638351 40.18927346 -18.03637611 36.00796132 -17.9609375 31.84375 C-17.92210791 28.37497318 -18.03795655 25.33071105 -19 22 C-19.13671105 20.48303311 -19.21908019 18.96030085 -19.25 17.4375 C-19.27578125 16.67308594 -19.3015625 15.90867187 -19.328125 15.12109375 C-18.91785415 12.46898575 -18.06591648 11.65172295 -16 10 C-15.401875 9.71125 -14.80375 9.4225 -14.1875 9.125 C-11.73615277 7.964791 -11.73615277 7.964791 -9 5.5 C-6.6200702 3.51672517 -4.79682963 2.19864127 -2 1 C-1.34 0.67 -0.68 0.34 0 0 Z " fill="#AF855D" transform="translate(104,94)"/>
<path d="M0 0 C1 2 1 2 0.4765625 4.0234375 C0.19554687 4.79945313 -0.08546875 5.57546875 -0.375 6.375 C-1.5612716 9.67370251 -1.5612716 9.67370251 -2.4140625 13.06640625 C-3.14950747 15.49337464 -4.27327002 16.71186116 -6 18.5625 C-9.80034883 22.73896582 -13.34827801 27.08489273 -16.88671875 31.484375 C-19 34 -19 34 -21.26953125 36.140625 C-23.34063824 37.94267329 -23.34063824 37.94267329 -23 41 C-24.75 42.82421875 -24.75 42.82421875 -27 44.6875 C-27.7425 45.31011719 -28.485 45.93273437 -29.25 46.57421875 C-29.8275 47.04472656 -30.405 47.51523438 -31 48 C-31.66 47.67 -32.32 47.34 -33 47 C-32.566875 46.05125 -32.13375 45.1025 -31.6875 44.125 C-30.3789104 41.110352 -29.43454836 38.10466466 -28.5625 34.9375 C-26.96135787 29.61913342 -25.5913887 25.47034907 -20.5078125 22.5859375 C-19.55648437 22.10382813 -18.60515625 21.62171875 -17.625 21.125 C-9.85447008 17.1517863 -6.38992245 11.43746084 -2.859375 3.6640625 C-2 2 -2 2 0 0 Z " fill="#A47D58" transform="translate(219,158)"/>
<path d="M0 0 C1.32 0 2.64 0 4 0 C3.92954256 3.52287186 3.8296633 6.09853892 1.375 8.765625 C0.1065297 9.81927371 -1.18630069 10.84441943 -2.50390625 11.8359375 C-2.99761719 12.22007813 -3.49132812 12.60421875 -4 13 C-4 13.33 -4 13.66 -4 14 C-2.91460937 14.23074219 -1.82921875 14.46148437 -0.7109375 14.69921875 C0.73457993 15.02774544 2.17988141 15.35722333 3.625 15.6875 C4.33785156 15.83638672 5.05070312 15.98527344 5.78515625 16.13867188 C10.94433818 17.34563645 14.301966 19.01542243 18 23 C19.37773786 25.70329398 20.2668005 28.47032477 21.125 31.375 C22.48610842 35.77721353 23.78630214 39.84094935 26.1953125 43.79296875 C28.40641652 47.72222502 28.05198033 49.70441367 27 54 C26.67 54 26.34 54 26 54 C25.90203125 53.3709375 25.8040625 52.741875 25.703125 52.09375 C24.80348431 46.94408259 23.59104682 42.77578576 21.06640625 38.2109375 C19.30182265 34.55249677 18.31015524 30.6392551 17.22265625 26.734375 C15.65941462 23.23830746 14.26230914 22.01393217 11 20 C8.07145948 18.88419489 5.09786295 18.08311051 2.0625 17.3125 C1.27681641 17.10044922 0.49113281 16.88839844 -0.31835938 16.66992188 C-2.53886741 16.08088334 -4.76610746 15.53560391 -7 15 C-7.9384375 14.75378906 -8.876875 14.50757812 -9.84375 14.25390625 C-14.86579934 13.84990476 -19.61839153 14.77246021 -24.5625 15.625 C-26.10454102 15.85509766 -26.10454102 15.85509766 -27.67773438 16.08984375 C-33.68139683 17.10926019 -37.09264474 18.03165876 -41 23 C-45.5 27.5 -45.5 27.5 -50 32 C-50 29 -50 29 -48.42578125 27.1328125 C-47.72839844 26.47023438 -47.03101562 25.80765625 -46.3125 25.125 C-45.58417969 24.42503906 -44.85585937 23.72507812 -44.10546875 23.00390625 C-43.41066406 22.34261719 -42.71585938 21.68132812 -42 21 C-41.03837891 20.02406198 -40.07937014 19.0455299 -39.125 18.0625 C-36.00754159 15.03673154 -34.10870438 14.85142969 -29.875 14.5625 C-26.39615606 14.28128967 -23.171088 13.88565009 -19.8125 12.9375 C-15.63144911 11.90937273 -12.27908393 11.84717557 -8 12 C-7.95875 11.278125 -7.9175 10.55625 -7.875 9.8125 C-6.61719712 5.76956216 -4.32953708 4.56651817 -1 2 C-0.67 1.34 -0.34 0.68 0 0 Z " fill="#4C242C" transform="translate(139,72)"/>
<path d="M0 0 C3.5817141 3.17056811 5.63158756 6.68682264 7.6875 10.9375 C7.99494141 11.54529297 8.30238281 12.15308594 8.61914062 12.77929688 C11.664071 18.9557749 12.10867756 23.72260615 12 30.5625 C11.93604418 34.59571406 11.88416457 38.12438841 13 42 C13.25436428 47.2568617 12.98256731 51.04358171 11 56 C8.85631908 52.78447861 7.48830671 49.5589943 6 46 C5.67 45.34 5.34 44.68 5 44 C5.03753495 41.74790279 5.15370678 39.4968056 5.3125 37.25 C5.39113281 36.03828125 5.46976563 34.8265625 5.55078125 33.578125 C5.98366197 30.13013599 6.82345066 27.25635508 8 24 C9.16883991 17.37657384 6.19897749 13.55161511 2.62890625 8.2578125 C1.19020111 6.13695728 1.19020111 6.13695728 0 5 C-0.04063832 3.33382885 -0.042721 1.66611905 0 0 Z " fill="#A27B57" transform="translate(216,81)"/>
<path d="M0 0 C0.95293945 0.14453613 1.90587891 0.28907227 2.88769531 0.43798828 C7.22098862 1.20840336 9.63481423 1.69171002 12.953125 4.703125 C13.38109375 5.54359375 13.8090625 6.3840625 14.25 7.25 C13.92 8.24 13.59 9.23 13.25 10.25 C12.4554541 9.74831299 11.6609082 9.24662598 10.84228516 8.72973633 C0.57240418 2.85757607 -7.7356309 2.42646301 -19.375 2.9375 C-21.80752042 3.01543137 -24.23985351 3.08291525 -26.67294312 3.14033508 C-28.1714313 3.17863849 -29.66965954 3.23017015 -31.16714478 3.29704285 C-34.90083707 3.42280598 -37.58465244 3.34713208 -40.75 1.25 C-39.76 1.25 -38.77 1.25 -37.75 1.25 C-37.75 0.59 -37.75 -0.07 -37.75 -0.75 C-25.30101468 -4.3709789 -12.53654973 -2.0606053 0 0 Z " fill="#98816E" transform="translate(153.75,23.75)"/>
<path d="M0 0 C0.66 0.33 1.32 0.66 2 1 C2.07421454 4.93260944 2.12863136 8.86494722 2.16479492 12.7980957 C2.18728333 14.79327701 2.22540198 16.78826213 2.26367188 18.78320312 C2.27333984 20.03681641 2.28300781 21.29042969 2.29296875 22.58203125 C2.31653442 24.31803589 2.31653442 24.31803589 2.34057617 26.08911133 C2 29 2 29 0.6027832 30.8269043 C-2.8343332 33.34256985 -4.61854524 34 -9 34 C-8.69835937 33.38769531 -8.39671875 32.77539062 -8.0859375 32.14453125 C-6.27748881 26.90783631 -5.92544931 21.41272935 -5.3203125 15.92382812 C-4.5500179 9.81836805 -3.05128425 5.35544335 0 0 Z " fill="#F7AACB" transform="translate(167,122)"/>
<path d="M0 0 C1.32 0 2.64 0 4 0 C4 1.98 4 3.96 4 6 C4.804375 6.268125 5.60875 6.53625 6.4375 6.8125 C7.283125 7.204375 8.12875 7.59625 9 8 C9.33 8.99 9.66 9.98 10 11 C10.99 11.33 11.98 11.66 13 12 C12.67 13.32 12.34 14.64 12 16 C9.89651926 16.19504458 7.79217415 16.38078496 5.6875 16.5625 C3.92986328 16.71912109 3.92986328 16.71912109 2.13671875 16.87890625 C-1 17 -1 17 -4 16 C-5.46650366 13.06699268 -5.36440295 11.27962656 -5 8 C-3.67962673 5.06348985 -2.24315584 2.32579842 0 0 Z " fill="#CD3383" transform="translate(119,68)"/>
<path d="M0 0 C0.40597556 4.97320061 -0.16791357 7.56002164 -2.859375 11.7109375 C-4.99709722 16.00102388 -5.8178797 20.82334545 -6.875 25.4765625 C-8.06386777 29.20003029 -9.21328646 31.27844343 -12 34 C-14.359375 34.92578125 -14.359375 34.92578125 -16.75 35.3125 C-17.54921875 35.45300781 -18.3484375 35.59351563 -19.171875 35.73828125 C-19.77515625 35.82464844 -20.3784375 35.91101563 -21 36 C-19.25 32.125 -19.25 32.125 -17 31 C-15.9805881 30.01979625 -14.97753644 29.02196992 -14 28 C-13.34 28.33 -12.68 28.66 -12 29 C-11.90501221 28.33468262 -11.81002441 27.66936523 -11.7121582 26.98388672 C-11.26622839 23.94415385 -10.78968607 20.90997652 -10.3125 17.875 C-10.16361328 16.82828125 -10.01472656 15.7815625 -9.86132812 14.703125 C-7.48835542 0 -7.48835542 0 0 0 Z " fill="#D1B798" transform="translate(165,119)"/>
<path d="M0 0 C2.75 0 2.75 0 6 1 C8.43344768 4.36506461 9.74338298 8.34562661 11.25 12.1875 C13.69515249 16.11720936 16.98564468 17.84502541 21 20 C20.67 21.98 20.34 23.96 20 26 C20.61875 25.79375 21.2375 25.5875 21.875 25.375 C22.57625 25.25125 23.2775 25.1275 24 25 C24.66 25.66 25.32 26.32 26 27 C22.92480943 27.36178713 20.06536007 27.49624716 17 27 C14.83392443 24.93238241 13.57108575 23.43407652 12 21 C9.66498692 17.98517299 7.39317854 15.29259798 4.3125 13 C1.43504064 10.5113865 0.82603511 8.67961095 0 5 C-0.125 2.125 -0.125 2.125 0 0 Z " fill="#CDB595" transform="translate(87,130)"/>
<path d="M0 0 C1.30324219 -0.04350586 1.30324219 -0.04350586 2.6328125 -0.08789062 C8.49537857 -0.14510786 13.50351038 0.62017986 18.25 4.3125 C18.745 5.7975 18.745 5.7975 19.25 7.3125 C16.38348988 8.12500287 13.79055396 8.47419364 10.8125 8.5 C10.07128906 8.51417969 9.33007812 8.52835938 8.56640625 8.54296875 C6.25 8.3125 6.25 8.3125 4.046875 7.40234375 C0.10501179 5.86633839 -3.89482479 5.33222324 -8.0625 4.6875 C-8.89845703 4.5534375 -9.73441406 4.419375 -10.59570312 4.28125 C-12.64631318 3.95315239 -14.69805121 3.63211819 -16.75 3.3125 C-11.4136693 -0.2450538 -6.24096044 0.06823207 0 0 Z " fill="#A57D58" transform="translate(111.75,217.6875)"/>
<path d="M0 0 C0.33 0 0.66 0 1 0 C5.00112466 20.47003956 5.00112466 20.47003956 0.5625 27.5 C0.11003906 28.1084375 -0.34242187 28.716875 -0.80859375 29.34375 C-3.1157591 32.55108806 -3.24754446 35.86303981 -3.5625 39.6875 C-3.68818359 41.17830078 -3.68818359 41.17830078 -3.81640625 42.69921875 C-3.87699219 43.45847656 -3.93757813 44.21773437 -4 45 C-4.66 44.67 -5.32 44.34 -6 44 C-6.05398987 41.72942623 -6.09278742 39.45848712 -6.125 37.1875 C-6.14820312 35.92292969 -6.17140625 34.65835938 -6.1953125 33.35546875 C-6 30 -6 30 -4 27 C-4.33 26.01 -4.66 25.02 -5 24 C-4.65454102 21.45629883 -4.65454102 21.45629883 -4.00390625 18.45703125 C-3.77509766 17.38388672 -3.54628906 16.31074219 -3.31054688 15.20507812 C-3.06369141 14.08552734 -2.81683594 12.96597656 -2.5625 11.8125 C-2.31951172 10.68134766 -2.07652344 9.55019531 -1.82617188 8.38476562 C-1.22439291 5.58826338 -0.61540548 2.79352957 0 0 Z " fill="#D2B999" transform="translate(30,84)"/>
<path d="M0 0 C1.49559408 2.99118816 0.62567071 5.57065773 0.15625 8.80859375 C-0.15327436 11.17834025 -0.15327436 11.17834025 1 14 C0.99273517 17.50164845 0.92558389 20.98980131 0.78515625 24.48828125 C0.66653167 30.6028392 1.52212965 35.38984089 5.90234375 40.00390625 C6.57394531 40.51824219 7.24554688 41.03257812 7.9375 41.5625 C11.46915649 44.43846292 13.67912972 47.10093792 16 51 C17.1551251 52.38177162 17.1551251 52.38177162 20.3125 52.125 C23.14648763 52.02893262 25.33595099 51.85249568 28 51 C28.33 51.66 28.66 52.32 29 53 C34.5392245 56.38782927 40.53118277 58.42055696 47 57 C49.6866867 55.57006914 51.6596167 53.99181557 54 52 C54.99 52.495 54.99 52.495 56 53 C51.7977876 57.045683 48.40087681 59.43894938 42.4375 59.5625 C37.71350985 59.30365122 34.33108283 57.89959773 30 56 C27.98264161 55.82778648 25.96053384 55.70701489 23.9375 55.625 C18.16223898 55.26404619 15.83242505 54.3237616 12 50 C11.484375 49.13375 10.96875 48.2675 10.4375 47.375 C9.15433372 44.8315573 9.15433372 44.8315573 6.5625 43.5625 C2.93557578 41.35096084 0.83271251 38.31131102 -0.609375 34.30859375 C-1.30638351 30.18927346 -1.03637611 26.00796132 -0.9609375 21.84375 C-0.92209631 18.37393698 -1.04467086 15.3327131 -2 12 C-2.11311965 10.48209216 -2.17462299 8.95956257 -2.1875 7.4375 C-2.20167969 6.67308594 -2.21585937 5.90867187 -2.23046875 5.12109375 C-2 3 -2 3 0 0 Z " fill="#512D35" transform="translate(87,104)"/>
<path d="M0 0 C0 0.66 0 1.32 0 2 C1.2375 2.144375 2.475 2.28875 3.75 2.4375 C5.78714538 2.67516696 7.68354311 2.89870929 9.63916016 3.5246582 C13.06379883 4.2141899 16.44150297 4.02030706 19.9140625 3.921875 C21.49607284 3.89459289 23.07810572 3.86859299 24.66015625 3.84375 C27.13555368 3.80074211 29.6097584 3.75044784 32.08447266 3.67773438 C41.93528544 3.40119261 49.52862847 3.33260531 58 9 C59.22432892 9.68450689 60.45319177 10.36099986 61.6875 11.02734375 C62.780625 11.65769531 63.87375 12.28804687 65 12.9375 C65.59031006 13.27595947 66.18062012 13.61441895 66.78881836 13.96313477 C71.19455895 16.49955612 75.52710089 19.14288739 79.81640625 21.87109375 C82.20823839 23.10765813 84.34903494 23.59466791 87 24 C86.505 25.485 86.505 25.485 86 27 C77.42881311 22.89778377 69.17389278 18.46463496 61.03930664 13.55322266 C59.0367454 12.34942368 57.02429394 11.16686457 55 10 C54.32606201 9.61094482 53.65212402 9.22188965 52.95776367 8.82104492 C48.5146224 6.41076223 45.22162694 5.51612007 40.0625 5.6875 C38.85207031 5.72230469 37.64164063 5.75710937 36.39453125 5.79296875 C32.95087711 6.00299599 29.55447165 6.33633935 26.1328125 6.765625 C18.78925342 7.57260951 12.69396056 6.86494614 5.62890625 4.734375 C2.08908881 3.74554041 -1.34618196 3.34469982 -5 3 C-2.25 0 -2.25 0 0 0 Z " fill="#371C23" transform="translate(105,22)"/>
<path d="M0 0 C3.56006158 1.165842 6.75358125 1.43313314 10.48828125 1.64453125 C11.73351562 1.71929688 12.97875 1.7940625 14.26171875 1.87109375 C15.20273438 1.92007812 16.14375 1.9690625 17.11328125 2.01953125 C17.11328125 3.00953125 17.11328125 3.99953125 17.11328125 5.01953125 C15.02965035 4.87801297 12.94638187 4.73115189 10.86328125 4.58203125 C9.703125 4.50082031 8.54296875 4.41960938 7.34765625 4.3359375 C4.11328125 4.01953125 4.11328125 4.01953125 2.19921875 3.5234375 C-1.15618666 2.71286204 -4.57701224 2.60344005 -8.01171875 2.39453125 C-8.74003906 2.34296875 -9.46835938 2.29140625 -10.21875 2.23828125 C-14.17491348 1.88382803 -14.17491348 1.88382803 -17.88671875 3.01953125 C-20.55908085 3.15368597 -23.20922363 3.06271666 -25.88671875 3.01953125 C-25.88671875 3.67953125 -25.88671875 4.33953125 -25.88671875 5.01953125 C-29.51671875 4.68953125 -33.14671875 4.35953125 -36.88671875 4.01953125 C-36.88671875 3.35953125 -36.88671875 2.69953125 -36.88671875 2.01953125 C-7.76883259 -2.6386698 -7.76883259 -2.6386698 0 0 Z " fill="#C7AF92" transform="translate(141.88671875,19.98046875)"/>
<path d="M0 0 C-0.33 0.99 -0.66 1.98 -1 3 C-7.04974995 5.28053401 -13.2837658 5.65566456 -19.6796875 6.2109375 C-20.45054688 6.28570313 -21.22140625 6.36046875 -22.015625 6.4375 C-23.05638184 6.52837891 -23.05638184 6.52837891 -24.11816406 6.62109375 C-26.32290123 6.94114793 -26.32290123 6.94114793 -29 9 C-31.1875 8.625 -31.1875 8.625 -33 8 C-32.875 6.125 -32.875 6.125 -32 4 C-22.09922458 -0.03749762 -10.57173577 -0.39561589 0 0 Z " fill="#201F1E" transform="translate(129,16)"/>
<path d="M0 0 C0.99 0 1.98 0 3 0 C2.58035072 4.89590828 0.42160801 6.66393219 -3 10 C-3.13277344 10.63292969 -3.26554688 11.26585937 -3.40234375 11.91796875 C-4.22764505 14.79303799 -5.77960614 15.86570665 -8.0625 17.75 C-9.16271484 18.67039063 -9.16271484 18.67039063 -10.28515625 19.609375 C-10.85105469 20.06828125 -11.41695312 20.5271875 -12 21 C-12.66 20.67 -13.32 20.34 -14 20 C-13.566875 19.05125 -13.13375 18.1025 -12.6875 17.125 C-10.97523993 13.20207552 -9.89511226 9.18193044 -8.84375 5.0390625 C-8.5653125 4.36617187 -8.286875 3.69328125 -8 3 C-7.01 2.67 -6.02 2.34 -5 2 C-4.67 2.99 -4.34 3.98 -4 5 C-3.401875 4.175 -2.80375 3.35 -2.1875 2.5 C-1.465625 1.675 -0.74375 0.85 0 0 Z " fill="#B0855E" transform="translate(200,185)"/>
<path d="M0 0 C0.66 0.33 1.32 0.66 2 1 C-6.12723041 10.51939487 -12.18705498 17.47714998 -25 19 C-21.25 13.25 -21.25 13.25 -19 11 C-16.375 11.375 -16.375 11.375 -14 12 C-13.42958984 10.88238281 -13.42958984 10.88238281 -12.84765625 9.7421875 C-10.71467014 6.57652947 -8.66750442 5.1292371 -5.4375 3.125 C-4.46683594 2.50882813 -3.49617188 1.89265625 -2.49609375 1.2578125 C-1.26052734 0.63519531 -1.26052734 0.63519531 0 0 Z " fill="#C7B093" transform="translate(80,32)"/>
<path d="M0 0 C0.72445312 0.09796875 1.44890625 0.1959375 2.1953125 0.296875 C2.91796875 2.53125 2.91796875 2.53125 3.1953125 5.296875 C0.33371044 9.6707058 -3.28531346 12.86276813 -8.3046875 14.296875 C-9.1296875 14.296875 -9.9546875 14.296875 -10.8046875 14.296875 C-11.5625 12.625 -11.5625 12.625 -11.8046875 10.296875 C-10.109375 7.71875 -10.109375 7.71875 -7.6796875 5.046875 C-6.89335937 4.15484375 -6.10703125 3.2628125 -5.296875 2.34375 C-2.8046875 0.296875 -2.8046875 0.296875 0 0 Z " fill="#331725" transform="translate(187.8046875,117.703125)"/>
<path d="M0 0 C3.18334346 0.57814085 6.1245257 1.75074524 9.125 2.9375 C9.99382812 3.27652344 10.86265625 3.61554688 11.7578125 3.96484375 C14 5 14 5 16 7 C15.625 9.125 15.625 9.125 15 11 C9.01654066 10.73406847 4.63439907 10.17095916 0 6 C-0.9375 3.3125 -0.9375 3.3125 -1 1 C-0.67 0.67 -0.34 0.34 0 0 Z " fill="#341C28" transform="translate(143,178)"/>
<path d="M0 0 C0.73734375 0.25007813 1.4746875 0.50015625 2.234375 0.7578125 C2.55369908 3.90150303 2.51403948 5.35109233 0.6953125 7.99609375 C-4.98711416 13.64659667 -4.98711416 13.64659667 -9.265625 14.2578125 C-10.090625 14.0928125 -10.915625 13.9278125 -11.765625 13.7578125 C-11.24355732 9.44307665 -9.85658439 7.14030352 -7.015625 3.8828125 C-6.00242187 2.68011719 -6.00242187 2.68011719 -4.96875 1.453125 C-2.765625 -0.2421875 -2.765625 -0.2421875 0 0 Z " fill="#361D29" transform="translate(77.765625,94.2421875)"/>
<path d="M0 0 C5.85420361 0.23894709 10.62497398 1.98121019 15 6 C15.5 8.8125 15.5 8.8125 15 11 C9.61772438 10.44797173 4.57965535 8.90908925 0 6 C-1.125 3.3125 -1.125 3.3125 -1 1 C-0.67 0.67 -0.34 0.34 0 0 Z " fill="#3A2930" transform="translate(107,46)"/>
<path d="M0 0 C0.474375 0.4125 0.94875 0.825 1.4375 1.25 C3.79860672 2.86246313 5.86807114 3.80835338 8.5 4.875 C12.46684748 6.59092251 14.76085999 8.17480249 17 12 C17.75 14.8125 17.75 14.8125 18 17 C17.60417725 16.60022949 17.20835449 16.20045898 16.80053711 15.78857422 C12.07529639 11.34454163 7.81511758 9.59620414 1.5625 8.125 C0.73556641 7.91359375 -0.09136719 7.7021875 -0.94335938 7.484375 C-2.95785348 6.97201812 -4.9783804 6.48347728 -7 6 C-6.21625 5.38125 -5.4325 4.7625 -4.625 4.125 C-2.03162353 2.10141339 -2.03162353 2.10141339 0 0 Z " fill="#CA3281" transform="translate(140,80)"/>
<path d="M0 0 C4.39952962 1.66204452 6.61179227 4.99452511 8.8125 9.0625 C9.1875 12.5625 9.1875 12.5625 8.8125 15.0625 C4.8125 15.0625 4.8125 15.0625 2.671875 13.26953125 C1.97578125 12.47933594 1.2796875 11.68914062 0.5625 10.875 C-0.14390625 10.09769531 -0.8503125 9.32039063 -1.578125 8.51953125 C-3.40483465 5.7306954 -3.61637915 4.32988193 -3.1875 1.0625 C-2.1875 0.0625 -2.1875 0.0625 0 0 Z " fill="#301C26" transform="translate(153.1875,64.9375)"/>
<path d="M0 0 C0.99 0.33 1.98 0.66 3 1 C4.8621508 5.7300622 5.25833731 10.96242242 5 16 C3.35 16.33 1.7 16.66 0 17 C-1.96661413 13.70670174 -2.27055005 11.18703427 -2.25 7.375 C-2.25515625 6.41335937 -2.2603125 5.45171875 -2.265625 4.4609375 C-2 2 -2 2 0 0 Z " fill="#462D2B" transform="translate(81,63)"/>
<path d="M0 0 C0.99 0 1.98 0 3 0 C2.43179252 5.45479185 1.05362055 9.91059256 -1 15 C-2.65 15 -4.3 15 -6 15 C-6.94995077 11.92084924 -7.25768217 10.52901638 -5.8203125 7.578125 C-5.26085938 6.80984375 -4.70140625 6.0415625 -4.125 5.25 C-3.29355469 4.08210937 -3.29355469 4.08210937 -2.4453125 2.890625 C-1 1 -1 1 0 0 Z " fill="#272233" transform="translate(62,159)"/>
<path d="M0 0 C1.93166016 0.01740234 1.93166016 0.01740234 3.90234375 0.03515625 C5.19269531 0.04417969 6.48304687 0.05320312 7.8125 0.0625 C8.81152344 0.07410156 9.81054688 0.08570312 10.83984375 0.09765625 C11.16984375 1.41765625 11.49984375 2.73765625 11.83984375 4.09765625 C8.31305276 6.44885024 6.8110489 6.31209077 2.65234375 6.22265625 C1.56566406 6.20460937 0.47898437 6.1865625 -0.640625 6.16796875 C-1.88779297 6.13316406 -1.88779297 6.13316406 -3.16015625 6.09765625 C-3.54234392 4.44150968 -3.87410727 2.77308601 -4.16015625 1.09765625 C-3.16015625 0.09765625 -3.16015625 0.09765625 0 0 Z " fill="#35252D" transform="translate(50.16015625,126.90234375)"/>
<path d="M0 0 C4.92963395 0.13240752 9.53315231 0.83862209 14 3 C14 4.32 14 5.64 14 7 C11.70858714 7.05384521 9.41681812 7.09272087 7.125 7.125 C5.21074219 7.15980469 5.21074219 7.15980469 3.2578125 7.1953125 C0 7 0 7 -2 5 C-1.46428571 1.46428571 -1.46428571 1.46428571 0 0 Z " fill="#2A1D2D" transform="translate(168,84)"/>
<path d="M0 0 C4.875 0.875 4.875 0.875 6 2 C6.07271741 4.35313555 6.08370868 6.70833668 6.0625 9.0625 C6.05347656 10.35285156 6.04445312 11.64320313 6.03515625 12.97265625 C6.02355469 13.97167969 6.01195312 14.97070312 6 16 C4.35 15.67 2.7 15.34 1 15 C0.63355422 13.44033408 0.28239138 11.87707349 -0.0625 10.3125 C-0.25972656 9.44238281 -0.45695313 8.57226562 -0.66015625 7.67578125 C-1.02032279 4.83998724 -0.70909969 2.75210018 0 0 Z " fill="#1C1C2B" transform="translate(179,155)"/>
<path d="M0 0 C0.33 1.32 0.66 2.64 1 4 C-0.39077301 4.82113177 -1.78788893 5.63152495 -3.1875 6.4375 C-3.96480469 6.88996094 -4.74210937 7.34242187 -5.54296875 7.80859375 C-8.04931977 9.02391499 -10.25790365 9.57626575 -13 10 C-13.33 8.35 -13.66 6.7 -14 5 C-5.92255125 -0.74031891 -5.92255125 -0.74031891 0 0 Z " fill="#241928" transform="translate(49,110)"/>
<path d="M0 0 C1.77275429 0.01172069 3.54527864 0.10955857 5.3125 0.25 C6.27800781 0.31703125 7.24351563 0.3840625 8.23828125 0.453125 C11.28988948 1.05740386 12.80537412 1.81058701 15 4 C15 4.99 15 5.98 15 7 C9.54230189 7.11138159 4.38490641 6.91657981 -1 6 C-1.042721 4.33388095 -1.04063832 2.66617115 -1 1 C-0.67 0.67 -0.34 0.34 0 0 Z " fill="#262330" transform="translate(57,61)"/>
<path d="M0 0 C1.32 0.33 2.64 0.66 4 1 C3.7027815 4.46754912 3.01217428 5.98469519 0.8125 8.75 C-2.26826936 11.21461548 -4.11617586 11.72903553 -8 12 C-8.33 10.68 -8.66 9.36 -9 8 C-7.8803014 6.99406757 -6.7540588 5.9954151 -5.625 5 C-4.68527344 4.1646875 -4.68527344 4.1646875 -3.7265625 3.3125 C-2 2 -2 2 0 2 C0 1.34 0 0.68 0 0 Z " fill="#201E1F" transform="translate(81,166)"/>
<path d="M0 0 C1.32 0.33 2.64 0.66 4 1 C3.48594831 5.96916636 2.76615118 10.29026351 1 15 C-0.65 14.67 -2.3 14.34 -4 14 C-4.43177893 7.73920552 -3.92739438 4.90924297 0 0 Z " fill="#1F1F1E" transform="translate(164,162)"/>
<path d="M0 0 C1.32 0 2.64 0 4 0 C3.32584613 5.2584002 1.75734451 10.02638346 0 15 C-1.65 14.67 -3.3 14.34 -5 14 C-5.65187534 8.78499725 -4.1009384 5.85154663 -1.484375 1.5390625 C-0.99453125 1.03117187 -0.5046875 0.52328125 0 0 Z " fill="#1F1827" transform="translate(119,68)"/>
<path d="M0 0 C2.24614638 2.12099453 4.00809339 4.28276276 5.6875 6.875 C6.12449219 7.53242187 6.56148437 8.18984375 7.01171875 8.8671875 C8 11 8 11 7.9296875 13.43359375 C8.02477758 16.90438184 9.37196184 18.4403758 11.4375 21.1875 C15.20944187 26.27009642 16.32416991 28.5166019 16 35 C15.67902344 35.91523437 15.35804688 36.83046875 15.02734375 37.7734375 C13.87948681 41.37849391 13.58851106 44.60297136 13.375 48.375 C13.30023438 49.62023437 13.22546875 50.86546875 13.1484375 52.1484375 C13.09945312 53.08945313 13.05046875 54.03046875 13 55 C12.67 55 12.34 55 12 55 C11.94579299 52.43721301 11.90622993 49.87558517 11.875 47.3125 C11.84986328 46.2306543 11.84986328 46.2306543 11.82421875 45.12695312 C11.78564135 40.90272835 12.25122653 37.82672782 14 34 C14.12259398 27.74770693 11.3148693 24.23211959 7.59375 19.52734375 C5.77109725 16.63700961 5.44106882 14.35676585 5 11 C3.6083124 8.86655232 3.6083124 8.86655232 2 7 C0.4379738 4.28700713 0 3.20396003 0 0 Z " fill="#3D2022" transform="translate(209,70)"/>
<path d="M0 0 C6.16456476 0.37742233 9.17375515 2.15870308 14 6 C13.67 7.32 13.34 8.64 13 10 C9.89311581 10.45466598 7.76409823 10.46669473 5.04296875 8.8046875 C3.15291023 7.27262377 1.49269532 5.92548864 0 4 C0 2.68 0 1.36 0 0 Z " fill="#1C1A19" transform="translate(57,79)"/>
<path d="M0 0 C5.17639134 0.37876034 9.4736037 2.12931057 13 6 C13 7.32 13 8.64 13 10 C8.76797628 10.42320237 5.95524165 10.40361534 2.5625 7.8125 C0 5 0 5 -0.375 2.1875 C-0.25125 1.465625 -0.1275 0.74375 0 0 Z " fill="#151614" transform="translate(168,102)"/>
<path d="M0 0 C1.32 0 2.64 0 4 0 C3.93017994 3.49100315 3.75929838 6.08259579 1.48046875 8.8359375 C-0.3038881 10.43622385 -1.88993255 11.85743072 -4 13 C-4.99 12.67 -5.98 12.34 -7 12 C-7.375 9.8125 -7.375 9.8125 -7 7 C-4.0625 4.3125 -4.0625 4.3125 -1 2 C-0.67 1.34 -0.34 0.68 0 0 Z " fill="#181716" transform="translate(139,72)"/>
<path d="M0 0 C1.32 0.33 2.64 0.66 4 1 C4.29341888 6.67276511 4.00559652 9.99067246 1 15 C-0.32 15 -1.64 15 -3 15 C-3.3152595 9.01006953 -2.68219822 5.36439644 0 0 Z " fill="#22191D" transform="translate(100,58)"/>
<path d="M0 0 C1.8125 0.125 1.8125 0.125 4 1 C6.66280693 5.08931064 7.34568576 8.16039934 7 13 C5.68 13.33 4.36 13.66 3 14 C0.24665445 10.04954769 -0.63820511 6.79378225 -1 2 C-0.67 1.34 -0.34 0.68 0 0 Z " fill="#3A2029" transform="translate(98,172)"/>
<path d="M0 0 C0.625 1.875 0.625 1.875 1 4 C-1.68092691 6.68092691 -3.39167363 6.38670257 -7.125 6.625 C-8.22070312 6.69976562 -9.31640625 6.77453125 -10.4453125 6.8515625 C-11.28835937 6.90054688 -12.13140625 6.94953125 -13 7 C-12.46553219 4.48852019 -12.17899313 3.2004723 -10.4375 1.25 C-6.86000943 -0.58461055 -3.99371657 -0.19968583 0 0 Z " fill="#410F1C" transform="translate(98,159)"/>
<path d="M0 0 C0.59296875 0.2165625 1.1859375 0.433125 1.796875 0.65625 C1.51279406 5.34358545 -0.71761771 7.86553915 -3.6328125 11.30078125 C-5.203125 12.65625 -5.203125 12.65625 -8.203125 12.65625 C-8.60429773 9.3131439 -8.90096834 6.72810087 -7.0078125 3.8203125 C-3.00111837 -0.4682596 -3.00111837 -0.4682596 0 0 Z " fill="#3D0F1B" transform="translate(191.203125,70.34375)"/>
<path d="M0 0 C0.53625 0.268125 1.0725 0.53625 1.625 0.8125 C2 3 2 3 1.625 5.8125 C-1.0625 8.6875 -1.0625 8.6875 -4.375 10.8125 C-7.25 10.625 -7.25 10.625 -9.375 9.8125 C-9.16578357 6.15121248 -8.22641649 4.33301181 -5.5625 1.9375 C-2.375 -0.1875 -2.375 -0.1875 0 0 Z " fill="#331C1A" transform="translate(86.375,181.1875)"/>
<path d="M0 0 C4.24480464 -0.33292585 6.35542625 -0.43885872 9.9375 2 C10.618125 2.66 11.29875 3.32 12 4 C11.67 5.65 11.34 7.3 11 9 C6.24518354 8.42365861 3.02951788 6.44931479 -1 4 C-0.67 2.68 -0.34 1.36 0 0 Z " fill="#3C0D1B" transform="translate(69,129)"/>
<path d="M0 0 C2.375 0.25 2.375 0.25 5 1 C7.66181082 4.2955753 7.15640774 7.93339881 7 12 C5.68 12.33 4.36 12.66 3 13 C2.29819469 11.5903653 1.61406042 10.17192359 0.9375 8.75 C0.55464844 7.96109375 0.17179688 7.1721875 -0.22265625 6.359375 C-1.08564091 3.74006478 -0.93045933 2.55144824 0 0 Z " fill="#3C2D21" transform="translate(160,51)"/>
<path d="M0 0 C1.32 0.33 2.64 0.66 4 1 C3.88601335 2.62580966 3.75844341 4.25067157 3.625 5.875 C3.55539063 6.77992188 3.48578125 7.68484375 3.4140625 8.6171875 C3 11 3 11 1 13 C-0.32 13 -1.64 13 -3 13 C-3.27429625 7.60550707 -3.36055646 4.48074195 0 0 Z " fill="#341D1C" transform="translate(135,195)"/>
<path d="M0 0 C3.63 0 7.26 0 11 0 C11.33 1.65 11.66 3.3 12 5 C10.33438601 6.66561399 8.34037295 6.17115945 6.0625 6.1875 C5.16660156 6.20167969 4.27070312 6.21585938 3.34765625 6.23046875 C1 6 1 6 -1 4 C-0.67 2.68 -0.34 1.36 0 0 Z " fill="#716331" transform="translate(47,144)"/>
<path d="M0 0 C1.43836751 0.11458693 2.87570966 0.24209116 4.3125 0.375 C5.51326172 0.47941406 5.51326172 0.47941406 6.73828125 0.5859375 C9 1 9 1 12 3 C12 4.32 12 5.64 12 7 C10.39667209 7.08121924 8.79215974 7.13929134 7.1875 7.1875 C6.29417969 7.22230469 5.40085938 7.25710937 4.48046875 7.29296875 C2 7 2 7 0.11328125 5.73828125 C-1 4 -1 4 -0.6875 1.8125 C-0.460625 1.214375 -0.23375 0.61625 0 0 Z " fill="#361E1D" transform="translate(170,143)"/>
<path d="M0 0 C3.9238497 -0.46712496 6.26151432 -0.18467957 9.375 2.1875 C12 5 12 5 12.375 7.8125 C12.25125 8.534375 12.1275 9.25625 12 10 C7.31266455 9.71591906 4.79071085 7.48550729 1.35546875 4.5703125 C0 3 0 3 0 0 Z " fill="#330A16" transform="translate(194,134)"/>
<path d="M0 0 C1.32 0 2.64 0 4 0 C4.05391993 1.79133978 4.09275571 3.58313899 4.125 5.375 C4.14820313 6.37273437 4.17140625 7.37046875 4.1953125 8.3984375 C4 11 4 11 2 13 C0.68 13 -0.64 13 -2 13 C-2.05391993 11.20866022 -2.09275571 9.41686101 -2.125 7.625 C-2.14820313 6.62726563 -2.17140625 5.62953125 -2.1953125 4.6015625 C-2 2 -2 2 0 0 Z " fill="#3A241E" transform="translate(196,94)"/>
<path d="M0 0 C1.32 0.66 2.64 1.32 4 2 C4.05447047 3.41623216 4.09300508 4.83308191 4.125 6.25 C4.14820312 7.03890625 4.17140625 7.8278125 4.1953125 8.640625 C3.9828378 11.20731941 3.28654105 12.7916067 2 15 C0.68 14.67 -0.64 14.34 -2 14 C-1.85970581 11.8537974 -1.71261836 9.70803782 -1.5625 7.5625 C-1.48128906 6.36753906 -1.40007812 5.17257813 -1.31640625 3.94140625 C-1 1 -1 1 0 0 Z " fill="#3A0B17" transform="translate(120,188)"/>
<path d="M0 0 C1.0828125 0.37125 1.0828125 0.37125 2.1875 0.75 C2 2.625 2 2.625 1.1875 4.75 C-0.47916667 5.41666667 -2.14583333 6.08333333 -3.8125 6.75 C-4.69943303 8.79105639 -4.69943303 8.79105639 -4.8125 10.75 C-6.1325 10.75 -7.4525 10.75 -8.8125 10.75 C-8.57336492 6.6049919 -8.38557276 4.38674751 -5.5625 1.25 C-2.8125 -0.25 -2.8125 -0.25 0 0 Z " fill="#370E1A" transform="translate(132.8125,171.25)"/>
<path d="M0 0 C0.99 0.33 1.98 0.66 3 1 C3 8.26 3 15.52 3 23 C2.34 23.33 1.68 23.66 1 24 C-1.00107527 15.74763174 -0.98970409 8.41248481 0 0 Z " fill="#080605" transform="translate(228,106)"/>
<path d="M0 0 C1.32 0.33 2.64 0.66 4 1 C3.67 4.96 3.34 8.92 3 13 C1.68 13.33 0.36 13.66 -1 14 C-2.65653686 12.34346314 -2.17106165 10.39349204 -2.1875 8.125 C-2.20167969 7.24070312 -2.21585938 6.35640625 -2.23046875 5.4453125 C-2 3 -2 3 0 0 Z " fill="#2F0911" transform="translate(143,33)"/>
<path d="M0 0 C0.97919756 3.07550784 0.98561151 5.02444072 0.125 8.125 C-0.05804688 8.80820313 -0.24109375 9.49140625 -0.4296875 10.1953125 C-1 12 -1 12 -2 14 C-2.66 14.144375 -3.32 14.28875 -4 14.4375 C-4.66 14.623125 -5.32 14.80875 -6 15 C-6.33 15.99 -6.66 16.98 -7 18 C-8.98 18 -10.96 18 -13 18 C-11.700625 16.5459375 -11.700625 16.5459375 -10.375 15.0625 C-6.41631226 10.45500121 -2.7234929 5.44698579 0 0 Z " fill="#937D6A" transform="translate(155,134)"/>
<path d="M0 0 C0.66 0.33 1.32 0.66 2 1 C0.61875523 2.65809558 -0.78061348 4.30110507 -2.1875 5.9375 C-2.96480469 6.85402344 -3.74210937 7.77054688 -4.54296875 8.71484375 C-7.15235962 11.14170172 -8.50739976 11.70843302 -12 12 C-12.33 11.01 -12.66 10.02 -13 9 C-3.62790698 1.81395349 -3.62790698 1.81395349 0 0 Z " fill="#CBB395" transform="translate(80,32)"/>
<path d="M0 0 C0.33 1.32 0.66 2.64 1 4 C1.66 4 2.32 4 3 4 C3.33 3.01 3.66 2.02 4 1 C4.02687279 2.81242052 4.04633715 4.62495233 4.0625 6.4375 C4.07410156 7.44683594 4.08570312 8.45617187 4.09765625 9.49609375 C4 12 4 12 3 13 C3.33 13.66 3.66 14.32 4 15 C2.35 14.67 0.7 14.34 -1 14 C-1.02685938 11.85423363 -1.04633088 9.70837355 -1.0625 7.5625 C-1.07410156 6.36753906 -1.08570312 5.17257813 -1.09765625 3.94140625 C-1 1 -1 1 0 0 Z " fill="#B0875F" transform="translate(89,116)"/>
<path d="M0 0 C0 0.66 0 1.32 0 2 C1.010625 2.12375 2.02125 2.2475 3.0625 2.375 C3.77664062 2.46652344 4.49078125 2.55804687 5.2265625 2.65234375 C7.42810321 2.92831153 9.63171315 3.18776333 11.8359375 3.44140625 C13.20316409 3.60644735 14.57035136 3.77181449 15.9375 3.9375 C17.90009766 4.16759766 17.90009766 4.16759766 19.90234375 4.40234375 C20.92457031 4.59957031 21.94679688 4.79679687 23 5 C23.33 5.66 23.66 6.32 24 7 C17.41088464 7.38591348 11.94010717 6.63761056 5.62890625 4.734375 C2.08908881 3.74554041 -1.34618196 3.34469982 -5 3 C-2.25 0 -2.25 0 0 0 Z " fill="#57393F" transform="translate(105,22)"/>
<path d="M0 0 C0.99 0 1.98 0 3 0 C2.72894465 4.60794092 0.71586523 6.77984246 -2.33203125 9.9609375 C-4 11 -4 11 -6.19921875 10.6640625 C-6.79347656 10.44492188 -7.38773438 10.22578125 -8 10 C-6.74054645 8.32471737 -5.46706318 6.65997386 -4.1875 5 C-3.47980469 4.071875 -2.77210938 3.14375 -2.04296875 2.1875 C-1.36878906 1.465625 -0.69460937 0.74375 0 0 Z " fill="#DCDCDC" transform="translate(186,119)"/>
<path d="M0 0 C0.99 0 1.98 0 3 0 C2.72894465 4.60794092 0.71586523 6.77984246 -2.33203125 9.9609375 C-4 11 -4 11 -6.19921875 10.6640625 C-6.79347656 10.44492188 -7.38773437 10.22578125 -8 10 C-6.74054645 8.32471737 -5.46706318 6.65997386 -4.1875 5 C-3.47980469 4.071875 -2.77210937 3.14375 -2.04296875 2.1875 C-1.36878906 1.465625 -0.69460937 0.74375 0 0 Z " fill="#DCDDDC" transform="translate(75,96)"/>
<path d="M0 0 C1.41791408 0.45445964 2.83428046 0.91374944 4.25 1.375 C5.43335938 1.75785156 5.43335938 1.75785156 6.640625 2.1484375 C8.86627958 2.95173667 10.90931672 3.89711662 13 5 C12.67 5.99 12.34 6.98 12 8 C7.24518354 7.42365861 4.02951788 5.44931479 0 3 C0 2.01 0 1.02 0 0 Z " fill="#E1E1E1" transform="translate(144,180)"/>
<path d="M0 0 C1.32 0 2.64 0 4 0 C5.703125 1.86328125 5.703125 1.86328125 7.25 4.3125 C8.03117188 5.51326172 8.03117188 5.51326172 8.828125 6.73828125 C10 9 10 9 10 12 C6.40690966 10.80230322 5.57906747 9.5323211 3.3125 6.5625 C2.68988281 5.75941406 2.06726563 4.95632812 1.42578125 4.12890625 C0 2 0 2 0 0 Z " fill="#E0E0E0" transform="translate(151,67)"/>
<path d="M0 0 C0.33 0 0.66 0 1 0 C1.30487805 9.14634146 1.30487805 9.14634146 -1 12 C-3.625 13.25 -3.625 13.25 -6 14 C-5.125 9.25 -5.125 9.25 -4 7 C-3.34 7 -2.68 7 -2 7 C-1.855625 6.030625 -1.71125 5.06125 -1.5625 4.0625 C-1 1 -1 1 0 0 Z " fill="#131212" transform="translate(155,126)"/>
<path d="M0 0 C-1 3 -1 3 -3.8125 4.75 C-6.96403086 5.98589446 -7.96929372 6.28222189 -11 5 C-10.625 3.0625 -10.625 3.0625 -10 1 C-6.78548731 -0.60725635 -3.56387464 -0.05748185 0 0 Z " fill="#191717" transform="translate(107,19)"/>
<path d="M0 0 C2.97 1.98 2.97 1.98 6 4 C6.33 2.68 6.66 1.36 7 0 C7.66 0.66 8.32 1.32 9 2 C8.625 4.625 8.625 4.625 8 7 C8.61875 6.79375 9.2375 6.5875 9.875 6.375 C10.57625 6.25125 11.2775 6.1275 12 6 C12.66 6.66 13.32 7.32 14 8 C6.23496241 8.91353383 6.23496241 8.91353383 3.2890625 6.734375 C0 2.81791908 0 2.81791908 0 0 Z " fill="#9D8672" transform="translate(99,149)"/>
<path d="M0 0 C4.55105375 0.54179211 8.06386006 1.62000841 12 4 C12.33 4.99 12.66 5.98 13 7 C8.39146203 6.27991594 4.32762591 4.68704061 0 3 C0 2.01 0 1.02 0 0 Z " fill="#EAEAEA" transform="translate(108,48)"/>
<path d="M0 0 C1.32451032 0.87797837 2.63427808 1.77822214 3.9375 2.6875 C4.66839844 3.18636719 5.39929688 3.68523437 6.15234375 4.19921875 C8.40755968 6.3972199 8.66943308 7.91995584 9 11 C7.51180543 10.0980639 6.03467187 9.17785871 4.5625 8.25 C3.73878906 7.73953125 2.91507812 7.2290625 2.06640625 6.703125 C0 5 0 5 -0.84765625 2.859375 C-0.89792969 2.24578125 -0.94820313 1.6321875 -1 1 C-0.67 0.67 -0.34 0.34 0 0 Z " fill="#D1B79A" transform="translate(97,143)"/>
<path d="M0 0 C0.66 0.33 1.32 0.66 2 1 C2.85486376 5.66289322 3.30042194 9.37627754 2 14 C0.68 14 -0.64 14 -2 14 C-1.33333333 9.33333333 -0.66666667 4.66666667 0 0 Z " fill="#6E523A" transform="translate(92,106)"/>
<path d="M0 0 C-0.33 0.66 -0.66 1.32 -1 2 C-1.66 2 -2.32 2 -3 2 C-3 2.66 -3 3.32 -3 4 C-6.63 3.67 -10.26 3.34 -14 3 C-14 2.34 -14 1.68 -14 1 C-9.32798795 -0.20568053 -4.78503708 -0.09382426 0 0 Z " fill="#C1AA8D" transform="translate(119,21)"/>
<path d="M0 0 C0.08114106 1.77007714 0.13925505 3.54122098 0.1875 5.3125 C0.22230469 6.29863281 0.25710937 7.28476563 0.29296875 8.30078125 C0 11 0 11 -1.51171875 12.85546875 C-2.00285156 13.23316406 -2.49398438 13.61085938 -3 14 C-2.67 11.69 -2.34 9.38 -2 7 C-2.66 7 -3.32 7 -4 7 C-4 5.02 -4 3.04 -4 1 C-1 0 -1 0 0 0 Z " fill="#8D7865" transform="translate(33,96)"/>
<path d="M0 0 C0.33 0 0.66 0 1 0 C1.33 4.29 1.66 8.58 2 13 C1.01 13 0.02 13 -1 13 C-1 14.32 -1 15.64 -1 17 C-1.66 17 -2.32 17 -3 17 C-2.68853528 15.10399631 -2.37578283 13.20820413 -2.0625 11.3125 C-1.88847656 10.25675781 -1.71445312 9.20101562 -1.53515625 8.11328125 C-1.06832879 5.39750396 -0.55577384 2.69875765 0 0 Z " fill="#C1AA8F" transform="translate(30,84)"/>
<path d="M0 0 C-3.96 1.98 -7.92 3.96 -12 6 C-12 5.01 -12 4.02 -12 3 C-7.82446998 -0.94355613 -5.08356751 -3.38904501 0 0 Z " fill="#5E4036" transform="translate(171,214)"/>
<path d="M0 0 C-1 3 -1 3 -3.8125 4.5625 C-4.864375 5.036875 -5.91625 5.51125 -7 6 C-7.78375 6.391875 -8.5675 6.78375 -9.375 7.1875 C-9.91125 7.455625 -10.4475 7.72375 -11 8 C-11 6.68 -11 5.36 -11 4 C-9.5437455 3.32880451 -8.08492133 2.66318193 -6.625 2 C-5.81289063 1.62875 -5.00078125 1.2575 -4.1640625 0.875 C-2 0 -2 0 0 0 Z " fill="#36A6CD" transform="translate(48,111)"/>
<path d="M0 0 C3.98671063 1.36687222 6.88494633 3.15195093 10 6 C10 6.66 10 7.32 10 8 C5.61999924 7.49942848 3.15830185 6.06806466 0 3 C0 2.01 0 1.02 0 0 Z " fill="#0F965D" transform="translate(59,80)"/>
<path d="M0 0 C1.09898702 3.29696105 0.87124444 4.40494903 0.0625 7.6875 C-0.13214844 8.49574219 -0.32679687 9.30398437 -0.52734375 10.13671875 C-0.68332031 10.75160156 -0.83929688 11.36648437 -1 12 C-2.32 12 -3.64 12 -5 12 C-4.42365861 7.24518354 -2.44931479 4.02951788 0 0 Z " fill="#37A8D0" transform="translate(120,69)"/>
<path d="M0 0 C0.33 0 0.66 0 1 0 C0.14285714 8.57142857 0.14285714 8.57142857 -2 12 C-2.99 12 -3.98 12 -5 12 C-4.42365861 7.24518354 -2.44931479 4.02951788 0 0 Z " fill="#DA7FA7" transform="translate(38,65)"/>
<path d="M0 0 C0.99 0.495 0.99 0.495 2 1 C2.6328125 3.72265625 2.6328125 3.72265625 3.125 7.0625 C3.29257813 8.16722656 3.46015625 9.27195312 3.6328125 10.41015625 C3.75398438 11.26480469 3.87515625 12.11945313 4 13 C2.68 13 1.36 13 0 13 C0 8.71 0 4.42 0 0 Z " fill="#DADE61" transform="translate(81,65)"/>
<path d="M0 0 C4.82360189 -0.19294408 8.49646738 0.24252386 13 2 C13 2.66 13 3.32 13 4 C8.71 3.67 4.42 3.34 0 3 C0 2.01 0 1.02 0 0 Z " fill="#37A8D1" transform="translate(57,63)"/>
<path d="M0 0 C3.11954738 0.33724836 4.6209965 0.6209965 6.875 2.875 C7.24625 3.57625 7.6175 4.2775 8 5 C7.67 5.99 7.34 6.98 7 8 C3.535 6.02 3.535 6.02 0 4 C0 2.66666667 0 1.33333333 0 0 Z " fill="#69594C" transform="translate(160,26)"/>
<path d="M0 0 C3.96 0 7.92 0 12 0 C9 3 9 3 6.73828125 3.29296875 C5.93777344 3.25816406 5.13726562 3.22335938 4.3125 3.1875 C3.10013672 3.14689453 3.10013672 3.14689453 1.86328125 3.10546875 C0.94095703 3.05326172 0.94095703 3.05326172 0 3 C0 2.01 0 1.02 0 0 Z " fill="#DEE5E3" transform="translate(48,129)"/>
<path d="M0 0 C1.60517097 0.08733576 3.20921662 0.19552224 4.8125 0.3125 C6.15248047 0.39951172 6.15248047 0.39951172 7.51953125 0.48828125 C10 1 10 1 13 4 C8.71 3.67 4.42 3.34 0 3 C0 2.01 0 1.02 0 0 Z " fill="#39AFD8" transform="translate(168,86)"/>
<path d="M0 0 C0.66 0.33 1.32 0.66 2 1 C1.53199289 5.05606165 1.12046792 8.46588679 -1 12 C-1.66 12 -2.32 12 -3 12 C-2.49202991 7.6822542 -1.80317221 3.96697886 0 0 Z " fill="#0E995F" transform="translate(101,60)"/>
<path d="M0 0 C4.62 0 9.24 0 14 0 C14 0.99 14 1.98 14 3 C11.8535247 2.88655624 9.70779408 2.75893655 7.5625 2.625 C6.36753906 2.55539063 5.17257813 2.48578125 3.94140625 2.4140625 C2.97074219 2.27742188 2.00007812 2.14078125 1 2 C0.67 1.34 0.34 0.68 0 0 Z " fill="#CEB698" transform="translate(145,22)"/>
<path d="M0 0 C4.5076467 0.53031138 7.41954788 2.25221116 11 5 C11 5.66 11 6.32 11 7 C7.98342209 6.85969405 5.76158727 6.70648535 3.48828125 4.59765625 C2.26743934 3.11095765 1.12753478 1.55865102 0 0 Z " fill="#0F9A61" transform="translate(169,104)"/>
<path d="M0 0 C0.99 0.33 1.98 0.66 3 1 C4.47666292 4.49029418 4.07164685 8.27436386 4 12 C3.01 12.495 3.01 12.495 2 13 C1.34 8.71 0.68 4.42 0 0 Z " fill="#38AED7" transform="translate(180,157)"/>
<path d="M0 0 C0.99 0.33 1.98 0.66 3 1 C1.47556387 2.67687974 0.27082722 3.8785947 -1.8125 4.8125 C-5.1452502 6.62170725 -7.38451367 9.26562792 -10 12 C-10.66 11.67 -11.32 11.34 -12 11 C-10.37807179 9.35113941 -8.75236228 7.7059976 -7.125 6.0625 C-6.22007813 5.14597656 -5.31515625 4.22945313 -4.3828125 3.28515625 C-2 1 -2 1 0 0 Z " fill="#A37D59" transform="translate(100,93)"/>
<path d="M0 0 C-1.34634457 4.4062186 -3.19374374 6.43077702 -7 9 C-7.66 9 -8.32 9 -9 9 C-7.45665977 5.21180126 -4.44676575 0 0 0 Z " fill="#109C62" transform="translate(142,74)"/>
<path d="M0 0 C1.68441812 0.47163707 3.36810087 0.94615147 5.046875 1.4375 C6.81457005 1.94659617 8.59432644 2.41334389 10.375 2.875 C13 4 13 4 13.875 6.125 C13.936875 7.053125 13.936875 7.053125 14 8 C9.07898758 5.9914235 4.57456238 3.70739406 0 1 C0 0.67 0 0.34 0 0 Z " fill="#9D8673" transform="translate(177,39)"/>
<path d="M0 0 C0.66 0 1.32 0 2 0 C3.60355101 3.50776784 4.22036864 6.14354879 4 10 C3.34 10 2.68 10 2 10 C-1.07692308 4.58461538 -1.07692308 4.58461538 -0.6875 1.625 C-0.460625 1.08875 -0.23375 0.5525 0 0 Z " fill="#DADBD4" transform="translate(99,174)"/>
<path d="M0 0 C0.33 0.99 0.66 1.98 1 3 C-4.625 8 -4.625 8 -8 8 C-6.49776416 3.79373966 -3.71449966 2.26099979 0 0 Z " fill="#0F9E62" transform="translate(82,168)"/>
<path d="M0 0 C0.66 0 1.32 0 2 0 C1.44687265 4.02992782 0.8441938 8.02022924 0 12 C-0.66 12 -1.32 12 -2 12 C-2.28571429 3.42857143 -2.28571429 3.42857143 0 0 Z " fill="#0F9C61" transform="translate(164,164)"/>
<path d="M0 0 C0.66 0 1.32 0 2 0 C1.71125 0.70125 1.4225 1.4025 1.125 2.125 C-0.02133588 5.05452503 -1.02625654 8.00921653 -2 11 C-2.99 11 -3.98 11 -5 11 C-4.46968862 6.4923533 -2.74778884 3.58045212 0 0 Z " fill="#39AFD9" transform="translate(62,161)"/>
<path d="M0 0 C0.66 0.66 1.32 1.32 2 2 C0.35 3.98 -1.3 5.96 -3 8 C-2.01 9.485 -2.01 9.485 -1 11 C-2.65 10.67 -4.3 10.34 -6 10 C-5.49477778 5.62140745 -2.82172778 3.18348776 0 0 Z " fill="#462A37" transform="translate(182,121)"/>
<path d="M0 0 C0.66 0.33 1.32 0.66 2 1 C1.34 3.97 0.68 6.94 0 10 C-0.99 10 -1.98 10 -3 10 C-2.69201674 8.51988629 -2.378482 7.04092675 -2.0625 5.5625 C-1.88847656 4.73878906 -1.71445313 3.91507813 -1.53515625 3.06640625 C-1 1 -1 1 0 0 Z " fill="#D2D254" transform="translate(136,196)"/>
<path d="M0 0 C1.485 0.99 1.485 0.99 3 2 C3.1875 5.625 3.1875 5.625 3 9 C2.01 9.33 1.02 9.66 0 10 C-0.74926071 6.33694766 -1.2380014 3.57644848 0 0 Z " fill="#785A3F" transform="translate(36,162)"/>
<path d="M0 0 C-1.28207359 2.86001033 -2.49151236 5.07039412 -5 7 C-6.32 7 -7.64 7 -9 7 C-9 6.34 -9 5.68 -9 5 C-7.5390625 3.7109375 -7.5390625 3.7109375 -5.625 2.375 C-4.99851562 1.92898437 -4.37203125 1.48296875 -3.7265625 1.0234375 C-2 0 -2 0 0 0 Z " fill="#D8D857" transform="translate(87,183)"/>
<path d="M0 0 C2.97 0.33 5.94 0.66 9 1 C9.33 1.99 9.66 2.98 10 4 C7.03 3.67 4.06 3.34 1 3 C0.67 2.01 0.34 1.02 0 0 Z " fill="#DBDB5A" transform="translate(171,145)"/>
<path d="M0 0 C0.33 0.66 0.66 1.32 1 2 C1.99 2.33 2.98 2.66 4 3 C2.73760288 3.86658615 1.46472499 4.71792059 0.1875 5.5625 C-0.87404297 6.27599609 -0.87404297 6.27599609 -1.95703125 7.00390625 C-4 8 -4 8 -7 7 C-3.25 4 -3.25 4 -1 4 C-0.67 2.68 -0.34 1.36 0 0 Z " fill="#A78F79" transform="translate(67,42)"/>
<path d="M0 0 C1.65 0.33 3.3 0.66 5 1 C5.33 2.65 5.66 4.3 6 6 C5.01 6.495 5.01 6.495 4 7 C3.87625 6.360625 3.7525 5.72125 3.625 5.0625 C3.41875 4.381875 3.2125 3.70125 3 3 C2.34 2.67 1.68 2.34 1 2 C1 2.99 1 3.98 1 5 C0.34 5 -0.32 5 -1 5 C-0.67 3.35 -0.34 1.7 0 0 Z " fill="#39273C" transform="translate(179,155)"/>
<path d="M0 0 C3.78383679 0.92493788 5.56693694 1.39371171 7.875 4.625 C8.431875 5.800625 8.431875 5.800625 9 7 C5.13066838 6.42676569 2.84777943 4.61046448 0 2 C0 1.34 0 0.68 0 0 Z " fill="#D21937" transform="translate(196,135)"/>
<path d="M0 0 C0.99 0.33 1.98 0.66 3 1 C3 1.99 3 2.98 3 4 C4.64639965 5.35827971 6.31295807 6.69254251 8 8 C8 8.66 8 9.32 8 10 C2.04654255 7.90824468 2.04654255 7.90824468 0 5 C-0.1875 2.3125 -0.1875 2.3125 0 0 Z " fill="#222221" transform="translate(168,102)"/>
<path d="M0 0 C3 1 3 1 4.25 3.3125 C5.0275526 6.09873015 4.98726527 7.33438378 4 10 C3.34 9.67 2.68 9.34 2 9 C1.3671875 6.93359375 1.3671875 6.93359375 0.875 4.4375 C0.70742187 3.61121094 0.53984375 2.78492188 0.3671875 1.93359375 C0.24601563 1.29550781 0.12484375 0.65742187 0 0 Z " fill="#DFE05A" transform="translate(161,52)"/>
<path d="M0 0 C-1.75 3.875 -1.75 3.875 -4 5 C-5.13350534 7.01669827 -5.13350534 7.01669827 -6 9 C-6.66 9 -7.32 9 -8 9 C-6.53333333 3.5 -6.53333333 3.5 -4 1.125 C-2 0 -2 0 0 0 Z " fill="#CB1936" transform="translate(133,172)"/>
<path d="M0 0 C0.66 0.33 1.32 0.66 2 1 C1.67 3.97 1.34 6.94 1 10 C0.01 10 -0.98 10 -2 10 C-1.85950482 8.52031676 -1.71245174 7.04125484 -1.5625 5.5625 C-1.48128906 4.73878906 -1.40007812 3.91507812 -1.31640625 3.06640625 C-1 1 -1 1 0 0 Z " fill="#E1E25B" transform="translate(197,95)"/>
<path d="M0 0 C0.66 0 1.32 0 2 0 C2.0270043 1.45823212 2.04639787 2.91660675 2.0625 4.375 C2.07410156 5.18710938 2.08570312 5.99921875 2.09765625 6.8359375 C2 9 2 9 1 11 C0.34 11 -0.32 11 -1 11 C-0.67 7.37 -0.34 3.74 0 0 Z " fill="#D51938" transform="translate(120,190)"/>
<path d="M0 0 C5.75 1.75 5.75 1.75 8 4 C7.625 6.125 7.625 6.125 7 8 C6.34 8 5.68 8 5 8 C5 6.68 5 5.36 5 4 C3.02 3.34 1.04 2.68 -1 2 C-0.67 1.34 -0.34 0.68 0 0 Z " fill="#422734" transform="translate(151,181)"/>
<path d="M0 0 C3.92300495 2.35380297 4.83857315 4.64464931 6 9 C2.83884224 7.63016497 2.0072908 7.0109362 0 4 C0 2.68 0 1.36 0 0 Z " fill="#A68D78" transform="translate(88,135)"/>
<path d="M0 0 C6.52307692 0.49230769 6.52307692 0.49230769 8.9375 3.0625 C9.288125 3.701875 9.63875 4.34125 10 5 C6.44219804 4.39009109 3.3171411 3.4216319 0 2 C0 1.34 0 0.68 0 0 Z " fill="#DA1B39" transform="translate(70,131)"/>
<path d="M0 0 C0.99 0.33 1.98 0.66 3 1 C1.50902342 4.7952131 -0.75700849 6.61042731 -4 9 C-3.35455571 5.51460083 -1.89865603 2.97180943 0 0 Z " fill="#E57CAD" transform="translate(34,106)"/>
<path d="M0 0 C0.66 0.33 1.32 0.66 2 1 C1.07038578 2.15224028 0.1309875 3.29659176 -0.8125 4.4375 C-1.59560547 5.39462891 -1.59560547 5.39462891 -2.39453125 6.37109375 C-4 8 -4 8 -7 9 C-5.44499019 5.18315774 -2.96404505 2.80804268 0 0 Z " fill="#454545" transform="translate(43,52)"/>
<path d="M0 0 C-1.49835764 3.11197356 -3.13977927 6.08835016 -5 9 C-5.33 9 -5.66 9 -6 9 C-6.25 6.75 -6.25 6.75 -6 4 C-2.75675676 0 -2.75675676 0 0 0 Z " fill="#DC1B3A" transform="translate(191,72)"/>
<path d="M0 0 C1.32 0.33 2.64 0.66 4 1 C0.04 4.465 0.04 4.465 -4 8 C-4.66 7.34 -5.32 6.68 -6 6 C-5.195625 5.38125 -4.39125 4.7625 -3.5625 4.125 C-0.96125481 2.25835959 -0.96125481 2.25835959 0 0 Z " fill="#252524" transform="translate(139,72)"/>
<path d="M0 0 C0 0.66 0 1.32 0 2 C-1.6396875 2.2165625 -1.6396875 2.2165625 -3.3125 2.4375 C-6.93122987 2.88288104 -6.93122987 2.88288104 -10 4 C-9.67 3.01 -9.34 2.02 -9 1 C-6.04335481 -0.4783226 -3.25770263 -0.06032783 0 0 Z " fill="#DF1B3A" transform="translate(97,161)"/>
<path d="M0 0 C0.99 0.33 1.98 0.66 3 1 C3 3.31 3 5.62 3 8 C2.67 8 2.34 8 2 8 C1.67 6.35 1.34 4.7 1 3 C0.67 3 0.34 3 0 3 C-0.33 4.98 -0.66 6.96 -1 9 C-1.33 9 -1.66 9 -2 9 C-2.125 5.625 -2.125 5.625 -2 2 C-1.34 1.34 -0.68 0.68 0 0 Z " fill="#28191A" transform="translate(81,63)"/>
<path d="M0 0 C1.32 0.33 2.64 0.66 4 1 C4.1953125 7.0546875 4.1953125 7.0546875 4 9 C3.34 9.66 2.68 10.32 2 11 C2 8.36 2 5.72 2 3 C1.01 3.495 1.01 3.495 0 4 C0 2.68 0 1.36 0 0 Z " fill="#101B15" transform="translate(100,58)"/>
<path d="M0 0 C0.66 0.33 1.32 0.66 2 1 C2 3.31 2 5.62 2 8 C0.68 8.33 -0.64 8.66 -2 9 C-2.33 7.68 -2.66 6.36 -3 5 C-2.01 5.33 -1.02 5.66 0 6 C0 4.02 0 2.04 0 0 Z " fill="#361E20" transform="translate(165,55)"/>
<path d="M0 0 C0.33 0 0.66 0 1 0 C0.67 3.63 0.34 7.26 0 11 C-2 9 -2 9 -2.25 6.0625 C-2 3 -2 3 0 0 Z " fill="#DE1B39" transform="translate(144,35)"/>
<path d="M0 0 C4.94026549 4.71570796 4.94026549 4.71570796 5.125 8.6875 C5.08375 9.450625 5.0425 10.21375 5 11 C0 4.63636364 0 4.63636364 0 0 Z " fill="#947B66" transform="translate(209,70)"/>
<path d="M0 0 C1.31611677 0.95336021 2.62778961 1.91285774 3.9375 2.875 C4.66839844 3.40867188 5.39929688 3.94234375 6.15234375 4.4921875 C8 6 8 6 9 8 C5.40608886 6.66511872 2.24509304 5.03977277 -1 3 C-0.67 2.01 -0.34 1.02 0 0 Z " fill="#A48B77" transform="translate(168,31)"/>
<path d="M0 0 C1.98 0.495 1.98 0.495 4 1 C4 2.65 4 4.3 4 6 C2.68 6.33 1.36 6.66 0 7 C0.99 5.35 1.98 3.7 3 2 C2.01 2.33 1.02 2.66 0 3 C0 2.01 0 1.02 0 0 Z " fill="#452529" transform="translate(84,181)"/>
<path d="M0 0 C0.66 0 1.32 0 2 0 C2.33 1.98 2.66 3.96 3 6 C1.68 6 0.36 6 -1 6 C-1.042721 4.33388095 -1.04063832 2.66617115 -1 1 C-0.67 0.67 -0.34 0.34 0 0 Z " fill="#795B3F" transform="translate(28,143)"/>
<path d="M0 0 C1.98 0.66 3.96 1.32 6 2 C5.67 2.99 5.34 3.98 5 5 C2.525 4.01 2.525 4.01 0 3 C0 2.01 0 1.02 0 0 Z " fill="#D9D9D9" transform="translate(144,180)"/>
<path d="M0 0 C-0.66 1.32 -1.32 2.64 -2 4 C-2.66 4 -3.32 4 -4 4 C-4.33 3.34 -4.66 2.68 -5 2 C-7.02463255 1.34786708 -7.02463255 1.34786708 -9 1 C-5.8035914 -0.06546953 -3.34252724 -0.07427838 0 0 Z " fill="#BAA489" transform="translate(145,152)"/>
<path d="M0 0 C0.928125 0.2784375 0.928125 0.2784375 1.875 0.5625 C4.04160178 1.23686176 4.04160178 1.23686176 6 0 C5.67 0.99 5.34 1.98 5 3 C2.69 3.33 0.38 3.66 -2 4 C-1.34 2.68 -0.68 1.36 0 0 Z " fill="#D6BD9D" transform="translate(146,151)"/>
<path d="M0 0 C1.32 0.33 2.64 0.66 4 1 C3.34 2.32 2.68 3.64 2 5 C1.67 4.34 1.34 3.68 1 3 C0.67 3.66 0.34 4.32 0 5 C-0.66 5 -1.32 5 -2 5 C-1.34 3.35 -0.68 1.7 0 0 Z " fill="#45131F" transform="translate(143,33)"/>
</svg>
